<?xml version="1.0" encoding="utf-8"?>
<!-- Generator: Adobe Illustrator 18.1.0, SVG Export Plug-In . SVG Version: 6.00 Build 0)  -->
<!DOCTYPE svg PUBLIC "-//W3C//DTD SVG 1.1//EN" "http://www.w3.org/Graphics/SVG/1.1/DTD/svg11.dtd">
<svg version="1.1" id="Layer_1" xmlns="http://www.w3.org/2000/svg" xmlns:xlink="http://www.w3.org/1999/xlink" x="0px" y="0px"
	 viewBox="-47 218.7 515.7 356.3" enable-background="new -47 218.7 515.7 356.3" xml:space="preserve">
<rect x="-61.3" y="150.1" fill="#69E2FF" width="689.4" height="450.3"/>
<path fill="#FFFFFF" d="M121.3,460.7c-5.6-5.5-16.1-16.1-15.7-16.8c0.5-1,0,4.3,0,4.3l-3.8,1.9l-7.6-5.3l-10.5-14.2l-10.5-5
	l-3.3-3.8v4.8l-3.8,4.1l-4.3,2.2h-1.4l0.2-0.5l4.6-11l2.9-16.8l-5.7-7.7l1.9-2.4l19.1,23h2.4l-27.2-38.9l-11-23l-24.3-14.9
	l-11.4-15.4l-45.8-51.7l2.7-14.3l2.8-14.4l-13.1-24.7L-61.3,134H989.8l-12.3,529.2H215.2l10-26.9l-11.9-23l-10-8.2l-4.3,2.9h-8.1
	h-13.3l-14.8-15.4l-12.4-14.4l-12.9-17.3l5.2-16.8l-6.7-26.9h-5.7l-3.8-7.2l3.8-18.7l-4.2-20.1l8-7.3h6.7l2.9,26.9l17.6,18.7
	l26.7,18.2l13.3-1.4l-0.5-2.9L182.3,513l-2.4-16.3l-4.2-1.9l-2.4-9.6l-12.9-7.7l-8.1-9.6l1-5.5l-1.4-13.2l-12.4-9.6l9.1-8.9h7.1
	l6.2-7.4l13.9,1.9l-12.9-6.2H158l-8.6-9.1h-7.6l-12.9,4.3v13l2.9,5.8l2.9,0.5l-2.9,3.8l-5.3,2.9l10,14.4l-2.4,1.9l-5.2-3.4l2.9,7.7
	l-7.1,3.3C124.6,464,123.3,462.7,121.3,460.7"/>
<polyline fill="none" stroke="#545453" stroke-width="2" stroke-miterlimit="10" points="258.9,355.5 258.9,370.8 263.7,409.2 
	273.3,423.6 273.3,435.6 282.9,461.5 288.7,476.4 283.4,492.2 280,496.5 281,522.9 306.9,553.6 314.1,588.1 353.7,641.9 381,686 "/>
<polyline fill="none" stroke="#545453" stroke-width="2" stroke-miterlimit="10" points="165.8,218.7 170.1,249 200.4,310.4 
	225.8,337.7 251.7,337.7 256.6,343.5 "/>
<polygon fill="#69E2FF" points="183.6,432.2 191.8,429.8 191.8,434.6 191.8,438.5 202.8,438.5 205.7,443.3 213.1,440.4 222.9,440.9 
	235.9,443.3 233.5,438.5 240,436.1 245.5,434.6 250.8,438.5 250.8,441.3 247.9,442.3 250.8,451.2 248.8,457.7 250.8,466.8 
	245.5,466.8 245.5,452.9 240,451.2 228.7,451.2 217.2,448.3 206.6,445.7 199.5,445.7 194.3,444.7 186.5,442.8 178,446 172.6,445.7 
	178.8,438.5 "/>
<rect x="185.9" y="284.8" fill="#FFFFFF" width="6.8" height="4.9"/>
<polyline fill="none" stroke="#545453" stroke-miterlimit="10" points="202.8,503.7 252.7,496 283.9,490.8 "/>
<line fill="none" stroke="#545453" stroke-miterlimit="10" x1="250.8" y1="497.2" x2="281" y2="522.9"/>
<polyline fill="none" stroke="#545453" stroke-miterlimit="10" points="250.8,620.8 246,605.9 218.6,577.1 210,553.6 200.4,533.9 
	210,522.9 204.2,510.1 194.1,483.1 183.1,470.1 186.5,458.1 172.6,445.7 178.3,433.2 170.3,420.3 "/>
<path fill="none" stroke="#545453" stroke-width="2" stroke-miterlimit="10" d="M446.5,215.9c-1.4,2.9-12,10.1-12,10.1h-14.4
	l-8.2-2.4l-21.1,6.2l-11-4.3l-31.2,25.9l-14.9,8.6l-7.7,22.1l-12,18.2l-30.2,33.6l-23,19.9l-1.9,1.7l-12.5-1.9l-20.1,7.7l-37.4,36.5
	l-5.3,12.5l-20.1,15.4l-2.9,12v9.6l-11,9.6v10.6l3.4,18.2l16.3,15.4l14.4,18.2l19.2,26.9l1.4,15.4l-3.8,6.7"/>
<polyline fill="none" stroke="#545453" stroke-miterlimit="10" points="258.9,355.5 274.3,357.9 293.1,349.2 298,344.4 328,340.1 
	348.1,329.1 "/>
<polyline fill="none" stroke="#545453" stroke-width="0.25" stroke-miterlimit="10" points="461.8,292.1 454.6,307.5 442.7,317.6 
	413.4,321.9 398,321.9 388.4,321.9 368.3,329.1 348.1,329.1 "/>
<polygon fill="#69E2FF" points="443.1,272 438.3,269.6 438.3,265.8 438.3,258.6 440.7,255.2 446.5,252.8 450.8,243.3 461.8,239.9 
	466.2,242.3 467.7,251.8 464.3,260.2 466.3,271.5 466.2,283.1 461.8,293.1 456.6,293.1 449.9,289.3 444.1,283.1 "/>
<polyline fill="none" stroke="#545453" stroke-miterlimit="10" points="258.9,355.5 269.4,373.2 284.8,403.4 293.1,423.6 
	290.6,443.3 293.1,463.9 301.1,487.4 324.6,513.3 343.8,540.2 360.1,554.6 395.2,570.9 412.9,588.1 475.3,651.5 503.1,686 "/>
<polyline fill="none" stroke="#545453" stroke-miterlimit="10" points="199.5,308.6 199.5,376.6 194.3,392.4 "/>
<image display="none" overflow="visible" opacity="0.4" enable-background="new    " width="1177" height="700" xlink:href="DF8FFCCF440C478A.jpg"  transform="matrix(0.4604 0 0 0.4615 -68.5032 252.0002)">
</image>
<path fill="none" stroke="#545453" stroke-miterlimit="10" d="M138.3,491.8l0.3,3.2l-5.9,2.2l-2.9,6.5l4.8,13l2.9,6.2l12,16.3
	l8.2,7.7l14.9,10.1c0,0,17.7,10.1,19.6,11c1.9,1,10.6,0,10.6,0l10.1-3.7l-8.8-4.8l-20.5-5.8l-4.3-5.8l-13.4-7.7l-12.5-11.5l-12-8.2
	l-2.9-10.5l1.5-2.6l-1.3-12.4"/>
<polyline fill="none" stroke="#545453" stroke-miterlimit="10" points="202.8,503.7 191.8,503.7 178.8,503.7 172.6,499.4 
	171.9,490.8 158.6,483.1 152.4,483.1 "/>
<polyline fill="none" stroke="#545453" stroke-miterlimit="10" points="149.5,467.2 133.2,463.4 124.9,459.6 122.2,456.7 
	122.2,442.3 116.4,434.6 116.4,425 111.2,420.3 111.2,412.1 96.3,403.4 96.3,376.6 87.6,365.3 74.2,347.3 74.2,334.4 59.3,321.4 
	53.1,306.1 "/>
<g>
	<path fill="#4D4D4D" d="M89.3,451.9c-0.4,0-0.8,0.1-1.1,0.3c-0.3,0.2-0.4,0.5-0.4,0.8s0.1,0.6,0.4,0.8c0.3,0.2,0.9,0.4,1.8,0.6
		s1.6,0.5,2.1,0.9c0.5,0.4,0.7,1,0.7,1.8s-0.3,1.4-0.9,1.9s-1.4,0.7-2.3,0.7c-1.4,0-2.7-0.5-3.8-1.5l1-1.2c0.9,0.8,1.9,1.2,2.9,1.2
		c0.5,0,0.9-0.1,1.2-0.3c0.3-0.2,0.4-0.5,0.4-0.8s-0.1-0.6-0.4-0.8c-0.3-0.2-0.7-0.4-1.4-0.5c-0.7-0.2-1.2-0.3-1.5-0.4
		s-0.7-0.3-0.9-0.5c-0.5-0.4-0.8-1-0.8-1.9c0-0.8,0.3-1.5,0.9-1.9c0.6-0.5,1.4-0.7,2.3-0.7c0.6,0,1.2,0.1,1.7,0.3
		c0.6,0.2,1.1,0.5,1.5,0.8l-0.8,1.2c-0.3-0.2-0.6-0.4-1.1-0.6C90.2,452,89.7,451.9,89.3,451.9z"/>
	<path fill="#4D4D4D" d="M95.9,457.7l-0.9,2.1h-1.6l4-9.1H99l4,9.1h-1.6l-0.9-2.1H95.9z M99.8,456.3l-1.6-3.7l-1.6,3.7H99.8z"/>
	<path fill="#4D4D4D" d="M111,450.7h1.5v9.1h-1.7l-5.1-6.6v6.6h-1.5v-9.1h1.5l5.3,6.8V450.7z"/>
	<path fill="#4D4D4D" d="M64.3,467.7v2.5h4v1.4h-4v3.7h-1.5v-9.1h6l0,1.4L64.3,467.7L64.3,467.7z"/>
	<path fill="#4D4D4D" d="M77.8,469.2c0,1.5-0.7,2.4-2,2.8l2.4,3.3h-1.9l-2.2-3h-2v3h-1.5v-9.1H74c1.4,0,2.4,0.2,3,0.7
		C77.5,467.4,77.8,468.2,77.8,469.2z M75.8,470.5c0.3-0.3,0.5-0.7,0.5-1.3c0-0.6-0.2-1-0.5-1.2s-0.9-0.3-1.7-0.3h-1.9v3.2H74
		C74.9,470.9,75.5,470.7,75.8,470.5z"/>
	<path fill="#4D4D4D" d="M81.3,473.2l-0.9,2.1h-1.6l4-9.1h1.6l4,9.1h-1.6l-0.9-2.1L81.3,473.2L81.3,473.2z M85.2,471.8l-1.6-3.7
		l-1.6,3.7H85.2z"/>
	<path fill="#4D4D4D" d="M96.4,466.3H98v9.1h-1.7l-5.1-6.6v6.6h-1.5v-9.1h1.5l5.3,6.8V466.3z"/>
	<path fill="#4D4D4D" d="M104.6,473.9c0.5,0,1-0.1,1.4-0.3s0.8-0.5,1.2-0.8l1,1c-1,1.1-2.1,1.6-3.5,1.6s-2.5-0.4-3.4-1.3
		c-0.9-0.9-1.4-2-1.4-3.3c0-1.3,0.5-2.5,1.4-3.4c0.9-0.9,2.1-1.3,3.5-1.3s2.6,0.5,3.5,1.6l-1,1.1c-0.4-0.4-0.8-0.7-1.2-0.9
		s-0.8-0.2-1.4-0.2c-0.9,0-1.7,0.3-2.3,0.9c-0.6,0.6-0.9,1.3-0.9,2.3c0,0.9,0.3,1.7,0.9,2.3C103,473.6,103.8,473.9,104.6,473.9z"/>
	<path fill="#4D4D4D" d="M112.7,467.4c-0.4,0-0.8,0.1-1.1,0.3c-0.3,0.2-0.4,0.5-0.4,0.8s0.1,0.6,0.4,0.8c0.3,0.2,0.9,0.4,1.8,0.6
		c0.9,0.2,1.6,0.5,2.1,0.9c0.5,0.4,0.7,1,0.7,1.8c0,0.8-0.3,1.4-0.9,1.9c-0.6,0.5-1.4,0.7-2.3,0.7c-1.4,0-2.7-0.5-3.8-1.5l1-1.2
		c0.9,0.8,1.9,1.2,2.9,1.2c0.5,0,0.9-0.1,1.2-0.3c0.3-0.2,0.4-0.5,0.4-0.8c0-0.4-0.1-0.6-0.4-0.8s-0.7-0.4-1.4-0.5
		c-0.7-0.2-1.2-0.3-1.5-0.4s-0.7-0.3-0.9-0.5c-0.5-0.4-0.8-1-0.8-1.9c0-0.8,0.3-1.5,0.9-1.9c0.6-0.5,1.4-0.7,2.3-0.7
		c0.6,0,1.2,0.1,1.7,0.3c0.6,0.2,1.1,0.5,1.5,0.8l-0.8,1.2c-0.3-0.2-0.6-0.4-1.1-0.6C113.6,467.5,113.1,467.4,112.7,467.4z"/>
	<path fill="#4D4D4D" d="M118.1,466.3h1.5v9.1h-1.5V466.3z"/>
	<path fill="#4D4D4D" d="M126.3,473.9c0.5,0,1-0.1,1.4-0.3s0.8-0.5,1.2-0.8l1,1c-1,1.1-2.1,1.6-3.5,1.6s-2.5-0.4-3.4-1.3
		c-0.9-0.9-1.4-2-1.4-3.3c0-1.3,0.5-2.5,1.4-3.4c0.9-0.9,2.1-1.3,3.5-1.3s2.6,0.5,3.5,1.6l-1,1.1c-0.4-0.4-0.8-0.7-1.2-0.9
		s-0.8-0.2-1.4-0.2c-0.9,0-1.7,0.3-2.3,0.9c-0.6,0.6-0.9,1.3-0.9,2.3c0,0.9,0.3,1.7,0.9,2.3C124.7,473.6,125.4,473.9,126.3,473.9z"
		/>
	<path fill="#4D4D4D" d="M139.1,474.1c-0.9,0.9-2,1.3-3.4,1.3s-2.5-0.4-3.4-1.3c-0.9-0.9-1.4-2-1.4-3.3c0-1.3,0.5-2.4,1.4-3.3
		c0.9-0.9,2-1.3,3.4-1.3s2.5,0.4,3.4,1.3c0.9,0.9,1.4,2,1.4,3.3C140.4,472,140,473.2,139.1,474.1z M137.9,468.4
		c-0.6-0.6-1.4-1-2.3-1s-1.7,0.3-2.3,1c-0.6,0.6-0.9,1.4-0.9,2.3s0.3,1.7,0.9,2.3c0.6,0.6,1.4,1,2.3,1s1.7-0.3,2.3-1
		c0.6-0.6,0.9-1.4,0.9-2.3S138.6,469,137.9,468.4z"/>
</g>
<g>
	<path fill="#4D4D4D" d="M390.9,284.7v-9.1h1.5v7.6h4.1v1.5L390.9,284.7L390.9,284.7z"/>
	<path fill="#4D4D4D" d="M399.5,282.7l-0.9,2.1h-1.6l4-9.1h1.6l4,9.1h-1.6l-0.9-2.1H399.5z M403.4,281.3l-1.6-3.7l-1.6,3.7H403.4z"
		/>
	<path fill="#4D4D4D" d="M407.8,275.7h1.5v4.4l4.1-4.4h1.9l-3.6,4l3.7,5.1h-1.8l-3-4l-1.3,1.4v2.5h-1.5L407.8,275.7L407.8,275.7z"/>
	<path fill="#4D4D4D" d="M423.3,275.7v1.4h-4.8v2.4h4.3v1.4h-4.3v2.4h5v1.4h-6.5v-9.1H423.3z"/>
	<path fill="#4D4D4D" d="M390.2,292.6v7.7h-1.5v-7.7H386v-1.4h7v1.4H390.2z"/>
	<path fill="#4D4D4D" d="M395.2,298.2l-0.9,2.1h-1.6l4-9.1h1.6l4,9.1h-1.6l-0.9-2.1H395.2z M399.1,296.8l-1.6-3.7l-1.6,3.7H399.1z"
		/>
	<path fill="#4D4D4D" d="M403.5,300.3v-9.1h1.5v3.9h4.5v-3.9h1.5v9.1h-1.5v-3.7h-4.5v3.7H403.5z"/>
	<path fill="#4D4D4D" d="M421.2,299c-0.9,0.9-2,1.3-3.4,1.3c-1.3,0-2.5-0.4-3.4-1.3c-0.9-0.9-1.4-2-1.4-3.3s0.5-2.4,1.4-3.3
		c0.9-0.9,2-1.3,3.4-1.3c1.3,0,2.5,0.4,3.4,1.3c0.9,0.9,1.4,2,1.4,3.3C422.6,297,422.1,298.1,421.2,299z M420.1,293.4
		c-0.6-0.6-1.4-1-2.3-1c-0.9,0-1.7,0.3-2.3,1c-0.6,0.6-0.9,1.4-0.9,2.3c0,0.9,0.3,1.7,0.9,2.3c0.6,0.6,1.4,1,2.3,1
		c0.9,0,1.7-0.3,2.3-1c0.6-0.6,0.9-1.4,0.9-2.3C421,294.8,420.7,294,420.1,293.4z"/>
	<path fill="#4D4D4D" d="M430.9,291.2v1.4H426v2.4h4.3v1.4H426v2.4h5v1.4h-6.5v-9.1L430.9,291.2L430.9,291.2z"/>
</g>
<g>
	<g id="_x3C_INTERSTATE_MARKER_x3E__2_">
		<g>
			<path fill="#4D4D4D" d="M194.2,286.9h-9.4c-0.1,0.5-0.2,1.1-0.2,1.6c0,0.5,0.1,4.8,4.9,6.1c4.8-1.3,4.9-5.6,4.9-6.1
				C194.5,288,194.4,287.5,194.2,286.9z"/>
			<path fill="#4D4D4D" d="M194.2,286.7c-0.2-0.6-0.5-1.3-1-1.9c-0.5,0.1-1.1,0.2-1.8,0.2c-0.5,0-1.2,0-1.9-0.3
				c-0.7,0.2-1.4,0.3-1.9,0.3c-0.7,0-1.3-0.1-1.8-0.2c-0.4,0.6-0.8,1.2-1,1.9H194.2z"/>
		</g>
	</g>
	<g>
		<path fill="#FFFFFF" d="M190.7,288.5v0.6H189v1c0.2-0.1,0.4-0.1,0.6-0.1c0.4,0,0.7,0.1,1,0.3s0.4,0.5,0.4,0.9c0,0.4-0.1,0.7-0.4,1
			c-0.3,0.3-0.6,0.4-1,0.4c-0.5,0-1-0.2-1.3-0.5l0.4-0.5c0,0,0.1,0.1,0.1,0.1c0.1,0,0.2,0.1,0.3,0.2c0.2,0.1,0.3,0.1,0.5,0.1
			s0.4-0.1,0.5-0.2c0.2-0.1,0.2-0.3,0.2-0.5s-0.1-0.4-0.2-0.5s-0.4-0.2-0.6-0.2c-0.3,0-0.5,0.1-0.7,0.2l-0.3-0.3v-1.9H190.7z"/>
	</g>
</g>
<g>
	<path fill="#4D4D4D" d="M418.7,325.7c0,0-0.5-0.7-1.4-0.7c-1.4,0-2.3-0.3-2.9-1.4c-1-1.7,0.2-2.7,0.2-3.8c0-0.8-0.6-1.9-0.6-1.9
		l1.7-1.6c1.2,0.8,2.1,0.6,3,0c0.9,0.6,1.8,0.8,3,0l1.7,1.6c0,0-0.6,1.1-0.6,1.9c0,1.1,1.3,2.1,0.2,3.8c-0.7,1.1-1.6,1.4-2.9,1.4
		C419.2,325,418.7,325.7,418.7,325.7z"/>
	<g>
		<g>
			<path fill="#FFFFFF" d="M418,319.1v0.6h-1.7v1c0.2-0.1,0.4-0.1,0.6-0.1c0.4,0,0.7,0.1,1,0.3c0.3,0.2,0.4,0.5,0.4,0.9
				s-0.1,0.7-0.4,1c-0.3,0.3-0.6,0.4-1,0.4c-0.5,0-1-0.2-1.3-0.5l0.4-0.5c0,0,0.1,0.1,0.1,0.1s0.2,0.1,0.3,0.2
				c0.2,0.1,0.3,0.1,0.5,0.1c0.2,0,0.4-0.1,0.5-0.2s0.2-0.3,0.2-0.5s-0.1-0.4-0.3-0.5c-0.2-0.1-0.4-0.2-0.6-0.2
				c-0.3,0-0.5,0.1-0.7,0.2l-0.3-0.3v-1.9L418,319.1L418,319.1z"/>
			<path fill="#FFFFFF" d="M419,322.6c-0.3-0.4-0.4-0.9-0.4-1.5c0-0.6,0.1-1.1,0.4-1.5c0.3-0.4,0.7-0.6,1.2-0.6s1,0.2,1.2,0.6
				c0.3,0.4,0.4,0.9,0.4,1.5c0,0.6-0.1,1.1-0.4,1.5c-0.3,0.4-0.7,0.6-1.2,0.6S419.3,323,419,322.6z M419.5,320
				c-0.2,0.3-0.2,0.6-0.2,1.1s0.1,0.8,0.2,1.1c0.2,0.3,0.4,0.4,0.7,0.4s0.6-0.1,0.7-0.4c0.2-0.3,0.2-0.6,0.2-1.1s-0.1-0.8-0.2-1.1
				c-0.2-0.3-0.4-0.4-0.7-0.4S419.6,319.8,419.5,320z"/>
		</g>
	</g>
</g>
<g>
	<g>
		<path fill="#4D4D4D" d="M104.4,412.8c0,0-0.5-0.7-1.4-0.7c-1.4,0-2.3-0.3-2.9-1.4c-1-1.7,0.2-2.7,0.2-3.8c0-0.8-0.6-1.9-0.6-1.9
			l1.7-1.6c1.2,0.8,2.1,0.6,3,0c0.9,0.6,1.8,0.8,3,0l1.7,1.6c0,0-0.6,1.1-0.6,1.9c0,1.1,1.3,2.1,0.2,3.8c-0.7,1.1-1.6,1.4-2.9,1.4
			C104.9,412.1,104.4,412.8,104.4,412.8z"/>
		<g>
			<path fill="#FFFFFF" d="M101.1,406.3h1.5v4h-0.6v-3.4h-0.8V406.3z"/>
			<path fill="#FFFFFF" d="M103.4,409.8c-0.3-0.4-0.4-0.9-0.4-1.5c0-0.6,0.1-1.1,0.4-1.5s0.7-0.6,1.2-0.6s1,0.2,1.2,0.6
				c0.3,0.4,0.4,0.9,0.4,1.5c0,0.6-0.1,1.1-0.4,1.5c-0.3,0.4-0.7,0.6-1.2,0.6S103.7,410.2,103.4,409.8z M103.9,407.2
				c-0.2,0.3-0.2,0.6-0.2,1.1s0.1,0.8,0.2,1.1s0.4,0.4,0.7,0.4c0.3,0,0.6-0.1,0.7-0.4c0.2-0.3,0.2-0.6,0.2-1.1s-0.1-0.8-0.2-1.1
				c-0.2-0.3-0.4-0.4-0.7-0.4C104.3,406.8,104.1,406.9,103.9,407.2z"/>
			<path fill="#FFFFFF" d="M106.3,406.3h1.5v4h-0.6v-3.4h-0.8V406.3z"/>
		</g>
	</g>
</g>
<g>
	<path fill="#4D4D4D" d="M309,348.1c0,0-0.5-0.7-1.4-0.7c-1.4,0-2.3-0.3-2.9-1.4c-1-1.7,0.2-2.7,0.2-3.8c0-0.8-0.6-1.9-0.6-1.9
		l1.7-1.6c1.2,0.8,2.1,0.6,3,0c0.9,0.6,1.8,0.8,3,0l1.7,1.6c0,0-0.6,1.1-0.6,1.9c0,1.1,1.3,2.1,0.2,3.8c-0.7,1.1-1.6,1.4-2.9,1.4
		C309.5,347.5,309,348.1,309,348.1z"/>
	<g>
		<g>
			<path fill="#FFFFFF" d="M308.4,341.6v0.6h-1.7v1c0.2-0.1,0.4-0.1,0.6-0.1c0.4,0,0.7,0.1,1,0.3c0.3,0.2,0.4,0.5,0.4,0.9
				s-0.1,0.7-0.4,1c-0.3,0.3-0.6,0.4-1,0.4c-0.5,0-1-0.2-1.3-0.5l0.4-0.5c0,0,0.1,0.1,0.1,0.1c0.1,0,0.2,0.1,0.3,0.2
				s0.3,0.1,0.5,0.1c0.2,0,0.4-0.1,0.5-0.2s0.2-0.3,0.2-0.5c0-0.2-0.1-0.4-0.3-0.5c-0.2-0.1-0.4-0.2-0.6-0.2c-0.3,0-0.5,0.1-0.7,0.2
				l-0.3-0.3v-1.9L308.4,341.6L308.4,341.6z"/>
			<path fill="#FFFFFF" d="M309.3,345.1c-0.3-0.4-0.4-0.9-0.4-1.5c0-0.6,0.1-1.1,0.4-1.5c0.3-0.4,0.7-0.6,1.2-0.6s1,0.2,1.2,0.6
				c0.3,0.4,0.4,0.9,0.4,1.5c0,0.6-0.1,1.1-0.4,1.5c-0.3,0.4-0.7,0.6-1.2,0.6S309.6,345.5,309.3,345.1z M309.8,342.5
				c-0.2,0.3-0.2,0.6-0.2,1.1c0,0.4,0.1,0.8,0.2,1.1c0.2,0.3,0.4,0.4,0.7,0.4s0.6-0.1,0.7-0.4c0.2-0.3,0.2-0.6,0.2-1.1
				s-0.1-0.8-0.2-1.1c-0.2-0.3-0.4-0.4-0.7-0.4S310,342.3,309.8,342.5z"/>
		</g>
	</g>
</g>
<polygon fill="#69E2FF" points="219.8,441.8 231.8,432.2 234.8,425.4 233,432.2 231.6,435.6 219.8,443.5 "/>
<polygon fill="#69E2FF" points="234.8,412.8 233.2,408.1 229.2,403.4 232,404.4 234.8,401.3 238,398.6 238,393.6 237.1,404.6 "/>
<path fill="#69E2FF" d="M316.5,308.6c0,0-2.3,0.8-2.7,1.9c-0.4,1.1,0,2.5,0,2.5h-1.6v3.3l-0.6,0.9l-4,6l-4.1,5.9v1.9l3.6,2.9h2.9
	c0,0,2.4-1.9,2.2-2.6s-0.7-2.2-0.7-2.2l2.6-2.4c0,0,0-2.9,0-2.3c0,0.6-4.1,3.3-4.1,3.3l-1,1.4l-1.2-1.4l1.2-2l1-2.5l1.9-2.2l1.9-4.7
	l1.3-3.5L316.5,308.6z"/>
<g>
	<path fill="#4D4D4D" d="M134.5,390.7h1.5v9.1h-1.7l-5.1-6.6v6.6h-1.5v-9.1h1.5l5.3,6.8V390.7z"/>
	<path fill="#4D4D4D" d="M139.8,397.7l-0.9,2.1h-1.6l4-9.1h1.6l4,9.1h-1.6l-0.9-2.1H139.8z M143.7,396.3l-1.6-3.7l-1.6,3.7H143.7z"
		/>
	<path fill="#4D4D4D" d="M154.2,391.5c0.6,0.5,0.9,1.3,0.9,2.4s-0.3,1.9-1,2.4c-0.6,0.5-1.6,0.8-3,0.8h-1.6v2.7h-1.5v-9.1h3.1
		C152.6,390.7,153.6,391,154.2,391.5z M153.2,395.2c0.3-0.3,0.5-0.8,0.5-1.4s-0.2-1.1-0.6-1.3c-0.4-0.3-1-0.4-1.8-0.4h-1.6v3.6h1.8
		C152.3,395.7,152.9,395.5,153.2,395.2z"/>
	<path fill="#4D4D4D" d="M157.8,397.7l-0.9,2.1h-1.6l4-9.1h1.6l4,9.1h-1.6l-0.9-2.1H157.8z M161.7,396.3l-1.6-3.7l-1.6,3.7H161.7z"
		/>
</g>
<g>
	<polygon fill="#EB551D" points="390.1,269.2 403.4,255.9 413.2,246.1 423.8,256.6 436.4,269.2 	"/>
	<polygon fill="none" stroke="#FFFFFF" stroke-miterlimit="10" points="411.8,255.6 406.2,253.6 413.2,246.1 420.8,253.6 
		413.5,250.8 	"/>
	<polygon fill="#EB551D" points="383,269.2 396.7,255.6 429.4,269.2 	"/>
	<line fill="none" stroke="#FFFFFF" stroke-miterlimit="10" x1="403" y1="255.5" x2="395.6" y2="262.9"/>
</g>
<g>
	<g>
		<circle fill="#EB551D" cx="135" cy="367.1" r="3.3"/>
	</g>
	<g>
		<circle fill="#EB551D" cx="142.4" cy="367.1" r="3.3"/>
	</g>
	<g>
		<circle fill="#EB551D" cx="138.8" cy="373.1" r="3.3"/>
	</g>
	<g>
		<circle fill="#EB551D" cx="146.1" cy="373.1" r="3.3"/>
	</g>
	<g>
		<circle fill="#EB551D" cx="146.1" cy="385.1" r="3.3"/>
	</g>
	<g>
		<circle fill="#EB551D" cx="153.9" cy="373.1" r="3.3"/>
	</g>
	<g>
		<circle fill="#EB551D" cx="138.8" cy="360.9" r="3.3"/>
	</g>
	<g>
		<circle fill="#EB551D" cx="146.1" cy="360.9" r="3.3"/>
	</g>
	<g>
		<circle fill="#EB551D" cx="153.9" cy="360.9" r="3.3"/>
	</g>
	<g>
		<circle fill="#EB551D" cx="149.8" cy="367.1" r="3.3"/>
	</g>
	<g>
		<circle fill="#EB551D" cx="142.4" cy="379.2" r="3.3"/>
	</g>
	<g>
		<circle fill="#EB551D" cx="149.8" cy="379.2" r="3.3"/>
	</g>
	<g>
		<circle fill="#EB551D" cx="157.1" cy="367.1" r="3.3"/>
	</g>
	<g>
		<g>
			<line fill="none" x1="146.1" y1="350.3" x2="146.1" y2="355.3"/>
		</g>
		<g>
			<path fill="#545453" d="M146.1,357c-1,0-1.8-0.8-1.8-1.8v-5c0-1,0.8-1.8,1.8-1.8s1.8,0.8,1.8,1.8v5
				C147.9,356.3,147.1,357,146.1,357z"/>
		</g>
	</g>
	<g>
		<path fill="#545453" d="M149.2,356.1c0,0-2.8-12,11.9-9.7c-0.1,8.5-6,11.3-11.9,10.3"/>
	</g>
	<g>
		<path fill="#545453" d="M143.5,356.5c0,0,1.4-6-5.9-4.9c0.1,4.3,3,5.6,5.9,5.2"/>
	</g>
	<g>
		
			<rect x="151" y="349.8" transform="matrix(-0.6534 -0.757 0.757 -0.6534 -17.9915 700.8292)" fill="#FFFFFF" width="0.8" height="9.4"/>
	</g>
	<g>
		
			<rect x="138.2" y="354.8" transform="matrix(-0.7467 -0.6652 0.6652 -0.7467 11.4631 714.7766)" fill="#FFFFFF" width="7.3" height="0.8"/>
	</g>
</g>
<polygon fill="#EB551D" points="304.4,279.2 254.1,279.2 203.9,279.2 203.9,240.4 304.4,240.4 "/>
<polygon fill="#EB551D" points="298,311.7 277.2,278.8 283.9,268.1 291.5,278.8 "/>
<g>
	<g>
		<g>
			<defs>
				<path id="SVGID_1_" d="M139,446.6c0,0-12.9,0.7-16.5-18.7c-3.2,19.7-43.8,19.5-47.8-0.7c-4.6,19.8-17.6,18.7-17.6,18.7l0.6,9.2
					l82.3,1.5L139,446.6z"/>
			</defs>
			<clipPath id="SVGID_2_">
				<use xlink:href="#SVGID_1_"  overflow="visible"/>
			</clipPath>
			
				<line clip-path="url(#SVGID_2_)" fill="none" stroke="#EB551D" stroke-width="3" stroke-miterlimit="10" x1="58.4" y1="445.9" x2="135.9" y2="445.9"/>
		</g>
		<g>
			<defs>
				<path id="SVGID_3_" d="M139,446.6c0,0-12.9,0.7-16.5-18.7c-3.2,19.7-43.8,19.5-47.8-0.7c-4.6,19.8-17.6,18.7-17.6,18.7l0.6,9.2
					l82.3,1.5L139,446.6z"/>
			</defs>
			<clipPath id="SVGID_4_">
				<use xlink:href="#SVGID_3_"  overflow="visible"/>
			</clipPath>
			
				<line clip-path="url(#SVGID_4_)" fill="none" stroke="#EB551D" stroke-miterlimit="10" x1="61.1" y1="429.2" x2="61.1" y2="445.9"/>
		</g>
		<g>
			<defs>
				<path id="SVGID_5_" d="M139,446.6c0,0-12.9,0.7-16.5-18.7c-3.2,19.7-43.8,19.5-47.8-0.7c-4.6,19.8-17.6,18.7-17.6,18.7l0.6,9.2
					l82.3,1.5L139,446.6z"/>
			</defs>
			<clipPath id="SVGID_6_">
				<use xlink:href="#SVGID_5_"  overflow="visible"/>
			</clipPath>
			
				<line clip-path="url(#SVGID_6_)" fill="none" stroke="#EB551D" stroke-miterlimit="10" x1="63.4" y1="429.2" x2="63.4" y2="445.9"/>
		</g>
		<g>
			<defs>
				<path id="SVGID_7_" d="M139,446.6c0,0-12.9,0.7-16.5-18.7c-3.2,19.7-43.8,19.5-47.8-0.7c-4.6,19.8-17.6,18.7-17.6,18.7l0.6,9.2
					l82.3,1.5L139,446.6z"/>
			</defs>
			<clipPath id="SVGID_8_">
				<use xlink:href="#SVGID_7_"  overflow="visible"/>
			</clipPath>
			
				<line clip-path="url(#SVGID_8_)" fill="none" stroke="#EB551D" stroke-miterlimit="10" x1="65.6" y1="429.2" x2="65.6" y2="445.9"/>
		</g>
		<g>
			<defs>
				<path id="SVGID_9_" d="M139,446.6c0,0-12.9,0.7-16.5-18.7c-3.2,19.7-43.8,19.5-47.8-0.7c-4.6,19.8-17.6,18.7-17.6,18.7l0.6,9.2
					l82.3,1.5L139,446.6z"/>
			</defs>
			<clipPath id="SVGID_10_">
				<use xlink:href="#SVGID_9_"  overflow="visible"/>
			</clipPath>
			
				<line clip-path="url(#SVGID_10_)" fill="none" stroke="#EB551D" stroke-miterlimit="10" x1="67.9" y1="429.2" x2="67.9" y2="445.9"/>
		</g>
		<g>
			<defs>
				<path id="SVGID_11_" d="M139,446.6c0,0-12.9,0.7-16.5-18.7c-3.2,19.7-43.8,19.5-47.8-0.7c-4.6,19.8-17.6,18.7-17.6,18.7l0.6,9.2
					l82.3,1.5L139,446.6z"/>
			</defs>
			<clipPath id="SVGID_12_">
				<use xlink:href="#SVGID_11_"  overflow="visible"/>
			</clipPath>
			
				<line clip-path="url(#SVGID_12_)" fill="none" stroke="#EB551D" stroke-miterlimit="10" x1="70.2" y1="429.2" x2="70.2" y2="445.9"/>
		</g>
		<g>
			<defs>
				<path id="SVGID_13_" d="M139,446.6c0,0-12.9,0.7-16.5-18.7c-3.2,19.7-43.8,19.5-47.8-0.7c-4.6,19.8-17.6,18.7-17.6,18.7l0.6,9.2
					l82.3,1.5L139,446.6z"/>
			</defs>
			<clipPath id="SVGID_14_">
				<use xlink:href="#SVGID_13_"  overflow="visible"/>
			</clipPath>
			
				<line clip-path="url(#SVGID_14_)" fill="none" stroke="#EB551D" stroke-miterlimit="10" x1="72.5" y1="429.2" x2="72.5" y2="445.9"/>
		</g>
		<g>
			<defs>
				<path id="SVGID_15_" d="M139,446.6c0,0-12.9,0.7-16.5-18.7c-3.2,19.7-43.8,19.5-47.8-0.7c-4.6,19.8-17.6,18.7-17.6,18.7l0.6,9.2
					l82.3,1.5L139,446.6z"/>
			</defs>
			<clipPath id="SVGID_16_">
				<use xlink:href="#SVGID_15_"  overflow="visible"/>
			</clipPath>
			
				<line clip-path="url(#SVGID_16_)" fill="none" stroke="#EB551D" stroke-width="3" stroke-miterlimit="10" x1="74.8" y1="429.2" x2="74.8" y2="455.1"/>
		</g>
		<g>
			<defs>
				<path id="SVGID_17_" d="M139,446.6c0,0-12.9,0.7-16.5-18.7c-3.2,19.7-43.8,19.5-47.8-0.7c-4.6,19.8-17.6,18.7-17.6,18.7l0.6,9.2
					l82.3,1.5L139,446.6z"/>
			</defs>
			<clipPath id="SVGID_18_">
				<use xlink:href="#SVGID_17_"  overflow="visible"/>
			</clipPath>
			<line clip-path="url(#SVGID_18_)" fill="none" stroke="#EB551D" stroke-miterlimit="10" x1="77" y1="429.2" x2="77" y2="445.9"/>
		</g>
		<g>
			<defs>
				<path id="SVGID_19_" d="M139,446.6c0,0-12.9,0.7-16.5-18.7c-3.2,19.7-43.8,19.5-47.8-0.7c-4.6,19.8-17.6,18.7-17.6,18.7l0.6,9.2
					l82.3,1.5L139,446.6z"/>
			</defs>
			<clipPath id="SVGID_20_">
				<use xlink:href="#SVGID_19_"  overflow="visible"/>
			</clipPath>
			
				<line clip-path="url(#SVGID_20_)" fill="none" stroke="#EB551D" stroke-miterlimit="10" x1="79.3" y1="429.2" x2="79.3" y2="445.9"/>
		</g>
		<g>
			<defs>
				<path id="SVGID_21_" d="M139,446.6c0,0-12.9,0.7-16.5-18.7c-3.2,19.7-43.8,19.5-47.8-0.7c-4.6,19.8-17.6,18.7-17.6,18.7l0.6,9.2
					l82.3,1.5L139,446.6z"/>
			</defs>
			<clipPath id="SVGID_22_">
				<use xlink:href="#SVGID_21_"  overflow="visible"/>
			</clipPath>
			
				<line clip-path="url(#SVGID_22_)" fill="none" stroke="#EB551D" stroke-miterlimit="10" x1="81.6" y1="429.2" x2="81.6" y2="445.9"/>
		</g>
		<g>
			<defs>
				<path id="SVGID_23_" d="M139,446.6c0,0-12.9,0.7-16.5-18.7c-3.2,19.7-43.8,19.5-47.8-0.7c-4.6,19.8-17.6,18.7-17.6,18.7l0.6,9.2
					l82.3,1.5L139,446.6z"/>
			</defs>
			<clipPath id="SVGID_24_">
				<use xlink:href="#SVGID_23_"  overflow="visible"/>
			</clipPath>
			
				<line clip-path="url(#SVGID_24_)" fill="none" stroke="#EB551D" stroke-miterlimit="10" x1="83.9" y1="429.2" x2="83.9" y2="445.9"/>
		</g>
		<g>
			<defs>
				<path id="SVGID_25_" d="M139,446.6c0,0-12.9,0.7-16.5-18.7c-3.2,19.7-43.8,19.5-47.8-0.7c-4.6,19.8-17.6,18.7-17.6,18.7l0.6,9.2
					l82.3,1.5L139,446.6z"/>
			</defs>
			<clipPath id="SVGID_26_">
				<use xlink:href="#SVGID_25_"  overflow="visible"/>
			</clipPath>
			
				<line clip-path="url(#SVGID_26_)" fill="none" stroke="#EB551D" stroke-miterlimit="10" x1="86.1" y1="429.2" x2="86.1" y2="445.9"/>
		</g>
		<g>
			<defs>
				<path id="SVGID_27_" d="M139,446.6c0,0-12.9,0.7-16.5-18.7c-3.2,19.7-43.8,19.5-47.8-0.7c-4.6,19.8-17.6,18.7-17.6,18.7l0.6,9.2
					l82.3,1.5L139,446.6z"/>
			</defs>
			<clipPath id="SVGID_28_">
				<use xlink:href="#SVGID_27_"  overflow="visible"/>
			</clipPath>
			
				<line clip-path="url(#SVGID_28_)" fill="none" stroke="#EB551D" stroke-miterlimit="10" x1="88.4" y1="429.2" x2="88.4" y2="445.9"/>
		</g>
		<g>
			<defs>
				<path id="SVGID_29_" d="M139,446.6c0,0-12.9,0.7-16.5-18.7c-3.2,19.7-43.8,19.5-47.8-0.7c-4.6,19.8-17.6,18.7-17.6,18.7l0.6,9.2
					l82.3,1.5L139,446.6z"/>
			</defs>
			<clipPath id="SVGID_30_">
				<use xlink:href="#SVGID_29_"  overflow="visible"/>
			</clipPath>
			
				<line clip-path="url(#SVGID_30_)" fill="none" stroke="#EB551D" stroke-miterlimit="10" x1="90.7" y1="429.2" x2="90.7" y2="445.9"/>
		</g>
		<g>
			<defs>
				<path id="SVGID_31_" d="M139,446.6c0,0-12.9,0.7-16.5-18.7c-3.2,19.7-43.8,19.5-47.8-0.7c-4.6,19.8-17.6,18.7-17.6,18.7l0.6,9.2
					l82.3,1.5L139,446.6z"/>
			</defs>
			<clipPath id="SVGID_32_">
				<use xlink:href="#SVGID_31_"  overflow="visible"/>
			</clipPath>
			<line clip-path="url(#SVGID_32_)" fill="none" stroke="#EB551D" stroke-miterlimit="10" x1="93" y1="429.2" x2="93" y2="445.9"/>
		</g>
		<g>
			<defs>
				<path id="SVGID_33_" d="M139,446.6c0,0-12.9,0.7-16.5-18.7c-3.2,19.7-43.8,19.5-47.8-0.7c-4.6,19.8-17.6,18.7-17.6,18.7l0.6,9.2
					l82.3,1.5L139,446.6z"/>
			</defs>
			<clipPath id="SVGID_34_">
				<use xlink:href="#SVGID_33_"  overflow="visible"/>
			</clipPath>
			
				<line clip-path="url(#SVGID_34_)" fill="none" stroke="#EB551D" stroke-miterlimit="10" x1="95.2" y1="429.2" x2="95.2" y2="445.9"/>
		</g>
		<g>
			<defs>
				<path id="SVGID_35_" d="M139,446.6c0,0-12.9,0.7-16.5-18.7c-3.2,19.7-43.8,19.5-47.8-0.7c-4.6,19.8-17.6,18.7-17.6,18.7l0.6,9.2
					l82.3,1.5L139,446.6z"/>
			</defs>
			<clipPath id="SVGID_36_">
				<use xlink:href="#SVGID_35_"  overflow="visible"/>
			</clipPath>
			
				<line clip-path="url(#SVGID_36_)" fill="none" stroke="#EB551D" stroke-miterlimit="10" x1="97.5" y1="429.2" x2="97.5" y2="445.9"/>
		</g>
		<g>
			<defs>
				<path id="SVGID_37_" d="M139,446.6c0,0-12.9,0.7-16.5-18.7c-3.2,19.7-43.8,19.5-47.8-0.7c-4.6,19.8-17.6,18.7-17.6,18.7l0.6,9.2
					l82.3,1.5L139,446.6z"/>
			</defs>
			<clipPath id="SVGID_38_">
				<use xlink:href="#SVGID_37_"  overflow="visible"/>
			</clipPath>
			
				<line clip-path="url(#SVGID_38_)" fill="none" stroke="#EB551D" stroke-miterlimit="10" x1="99.8" y1="429.2" x2="99.8" y2="445.9"/>
		</g>
		<g>
			<defs>
				<path id="SVGID_39_" d="M139,446.6c0,0-12.9,0.7-16.5-18.7c-3.2,19.7-43.8,19.5-47.8-0.7c-4.6,19.8-17.6,18.7-17.6,18.7l0.6,9.2
					l82.3,1.5L139,446.6z"/>
			</defs>
			<clipPath id="SVGID_40_">
				<use xlink:href="#SVGID_39_"  overflow="visible"/>
			</clipPath>
			
				<line clip-path="url(#SVGID_40_)" fill="none" stroke="#EB551D" stroke-miterlimit="10" x1="102.1" y1="429.2" x2="102.1" y2="445.9"/>
		</g>
		<g>
			<defs>
				<path id="SVGID_41_" d="M139,446.6c0,0-12.9,0.7-16.5-18.7c-3.2,19.7-43.8,19.5-47.8-0.7c-4.6,19.8-17.6,18.7-17.6,18.7l0.6,9.2
					l82.3,1.5L139,446.6z"/>
			</defs>
			<clipPath id="SVGID_42_">
				<use xlink:href="#SVGID_41_"  overflow="visible"/>
			</clipPath>
			
				<line clip-path="url(#SVGID_42_)" fill="none" stroke="#EB551D" stroke-miterlimit="10" x1="104.4" y1="429.2" x2="104.4" y2="445.9"/>
		</g>
		<g>
			<defs>
				<path id="SVGID_43_" d="M139,446.6c0,0-12.9,0.7-16.5-18.7c-3.2,19.7-43.8,19.5-47.8-0.7c-4.6,19.8-17.6,18.7-17.6,18.7l0.6,9.2
					l82.3,1.5L139,446.6z"/>
			</defs>
			<clipPath id="SVGID_44_">
				<use xlink:href="#SVGID_43_"  overflow="visible"/>
			</clipPath>
			
				<line clip-path="url(#SVGID_44_)" fill="none" stroke="#EB551D" stroke-miterlimit="10" x1="106.6" y1="429.2" x2="106.6" y2="445.9"/>
		</g>
		<g>
			<defs>
				<path id="SVGID_45_" d="M139,446.6c0,0-12.9,0.7-16.5-18.7c-3.2,19.7-43.8,19.5-47.8-0.7c-4.6,19.8-17.6,18.7-17.6,18.7l0.6,9.2
					l82.3,1.5L139,446.6z"/>
			</defs>
			<clipPath id="SVGID_46_">
				<use xlink:href="#SVGID_45_"  overflow="visible"/>
			</clipPath>
			
				<line clip-path="url(#SVGID_46_)" fill="none" stroke="#EB551D" stroke-miterlimit="10" x1="108.9" y1="429.2" x2="108.9" y2="445.9"/>
		</g>
		<g>
			<defs>
				<path id="SVGID_47_" d="M139,446.6c0,0-12.9,0.7-16.5-18.7c-3.2,19.7-43.8,19.5-47.8-0.7c-4.6,19.8-17.6,18.7-17.6,18.7l0.6,9.2
					l82.3,1.5L139,446.6z"/>
			</defs>
			<clipPath id="SVGID_48_">
				<use xlink:href="#SVGID_47_"  overflow="visible"/>
			</clipPath>
			
				<line clip-path="url(#SVGID_48_)" fill="none" stroke="#EB551D" stroke-miterlimit="10" x1="111.2" y1="429.2" x2="111.2" y2="445.9"/>
		</g>
		<g>
			<defs>
				<path id="SVGID_49_" d="M139,446.6c0,0-12.9,0.7-16.5-18.7c-3.2,19.7-43.8,19.5-47.8-0.7c-4.6,19.8-17.6,18.7-17.6,18.7l0.6,9.2
					l82.3,1.5L139,446.6z"/>
			</defs>
			<clipPath id="SVGID_50_">
				<use xlink:href="#SVGID_49_"  overflow="visible"/>
			</clipPath>
			
				<line clip-path="url(#SVGID_50_)" fill="none" stroke="#EB551D" stroke-miterlimit="10" x1="113.5" y1="429.2" x2="113.5" y2="445.9"/>
		</g>
		<g>
			<defs>
				<path id="SVGID_51_" d="M139,446.6c0,0-12.9,0.7-16.5-18.7c-3.2,19.7-43.8,19.5-47.8-0.7c-4.6,19.8-17.6,18.7-17.6,18.7l0.6,9.2
					l82.3,1.5L139,446.6z"/>
			</defs>
			<clipPath id="SVGID_52_">
				<use xlink:href="#SVGID_51_"  overflow="visible"/>
			</clipPath>
			
				<line clip-path="url(#SVGID_52_)" fill="none" stroke="#EB551D" stroke-miterlimit="10" x1="115.7" y1="429.2" x2="115.7" y2="445.9"/>
		</g>
		<g>
			<defs>
				<path id="SVGID_53_" d="M139,446.6c0,0-12.9,0.7-16.5-18.7c-3.2,19.7-43.8,19.5-47.8-0.7c-4.6,19.8-17.6,18.7-17.6,18.7l0.6,9.2
					l82.3,1.5L139,446.6z"/>
			</defs>
			<clipPath id="SVGID_54_">
				<use xlink:href="#SVGID_53_"  overflow="visible"/>
			</clipPath>
			
				<line clip-path="url(#SVGID_54_)" fill="none" stroke="#EB551D" stroke-miterlimit="10" x1="118" y1="429.2" x2="118" y2="445.9"/>
		</g>
		<g>
			<defs>
				<path id="SVGID_55_" d="M139,446.6c0,0-12.9,0.7-16.5-18.7c-3.2,19.7-43.8,19.5-47.8-0.7c-4.6,19.8-17.6,18.7-17.6,18.7l0.6,9.2
					l82.3,1.5L139,446.6z"/>
			</defs>
			<clipPath id="SVGID_56_">
				<use xlink:href="#SVGID_55_"  overflow="visible"/>
			</clipPath>
			
				<line clip-path="url(#SVGID_56_)" fill="none" stroke="#EB551D" stroke-miterlimit="10" x1="120.3" y1="429.2" x2="120.3" y2="445.9"/>
		</g>
		<g>
			<defs>
				<path id="SVGID_57_" d="M139,446.6c0,0-12.9,0.7-16.5-18.7c-3.2,19.7-43.8,19.5-47.8-0.7c-4.6,19.8-17.6,18.7-17.6,18.7l0.6,9.2
					l82.3,1.5L139,446.6z"/>
			</defs>
			<clipPath id="SVGID_58_">
				<use xlink:href="#SVGID_57_"  overflow="visible"/>
			</clipPath>
			
				<line clip-path="url(#SVGID_58_)" fill="none" stroke="#EB551D" stroke-width="3" stroke-miterlimit="10" x1="122.6" y1="429.2" x2="122.6" y2="455.1"/>
		</g>
		<g>
			<defs>
				<path id="SVGID_59_" d="M139,446.6c0,0-12.9,0.7-16.5-18.7c-3.2,19.7-43.8,19.5-47.8-0.7c-4.6,19.8-17.6,18.7-17.6,18.7l0.6,9.2
					l82.3,1.5L139,446.6z"/>
			</defs>
			<clipPath id="SVGID_60_">
				<use xlink:href="#SVGID_59_"  overflow="visible"/>
			</clipPath>
			
				<line clip-path="url(#SVGID_60_)" fill="none" stroke="#EB551D" stroke-miterlimit="10" x1="124.8" y1="429.2" x2="124.8" y2="445.9"/>
		</g>
		<g>
			<defs>
				<path id="SVGID_61_" d="M139,446.6c0,0-12.9,0.7-16.5-18.7c-3.2,19.7-43.8,19.5-47.8-0.7c-4.6,19.8-17.6,18.7-17.6,18.7l0.6,9.2
					l82.3,1.5L139,446.6z"/>
			</defs>
			<clipPath id="SVGID_62_">
				<use xlink:href="#SVGID_61_"  overflow="visible"/>
			</clipPath>
			
				<line clip-path="url(#SVGID_62_)" fill="none" stroke="#EB551D" stroke-miterlimit="10" x1="127.1" y1="429.2" x2="127.1" y2="445.9"/>
		</g>
		<g>
			<defs>
				<path id="SVGID_63_" d="M139,446.6c0,0-12.9,0.7-16.5-18.7c-3.2,19.7-43.8,19.5-47.8-0.7c-4.6,19.8-17.6,18.7-17.6,18.7l0.6,9.2
					l82.3,1.5L139,446.6z"/>
			</defs>
			<clipPath id="SVGID_64_">
				<use xlink:href="#SVGID_63_"  overflow="visible"/>
			</clipPath>
			
				<line clip-path="url(#SVGID_64_)" fill="none" stroke="#EB551D" stroke-miterlimit="10" x1="129.4" y1="429.2" x2="129.4" y2="445.9"/>
		</g>
		<g>
			<defs>
				<path id="SVGID_65_" d="M139,446.6c0,0-12.9,0.7-16.5-18.7c-3.2,19.7-43.8,19.5-47.8-0.7c-4.6,19.8-17.6,18.7-17.6,18.7l0.6,9.2
					l82.3,1.5L139,446.6z"/>
			</defs>
			<clipPath id="SVGID_66_">
				<use xlink:href="#SVGID_65_"  overflow="visible"/>
			</clipPath>
			
				<line clip-path="url(#SVGID_66_)" fill="none" stroke="#EB551D" stroke-miterlimit="10" x1="131.7" y1="429.2" x2="131.7" y2="445.9"/>
		</g>
		<g>
			<defs>
				<path id="SVGID_67_" d="M139,446.6c0,0-12.9,0.7-16.5-18.7c-3.2,19.7-43.8,19.5-47.8-0.7c-4.6,19.8-17.6,18.7-17.6,18.7l0.6,9.2
					l82.3,1.5L139,446.6z"/>
			</defs>
			<clipPath id="SVGID_68_">
				<use xlink:href="#SVGID_67_"  overflow="visible"/>
			</clipPath>
			
				<line clip-path="url(#SVGID_68_)" fill="none" stroke="#EB551D" stroke-miterlimit="10" x1="133.9" y1="429.2" x2="133.9" y2="445.9"/>
		</g>
		<g>
			<defs>
				<path id="SVGID_69_" d="M139,446.6c0,0-12.9,0.7-16.5-18.7c-3.2,19.7-43.8,19.5-47.8-0.7c-4.6,19.8-17.6,18.7-17.6,18.7l0.6,9.2
					l82.3,1.5L139,446.6z"/>
			</defs>
			<clipPath id="SVGID_70_">
				<use xlink:href="#SVGID_69_"  overflow="visible"/>
			</clipPath>
			
				<line clip-path="url(#SVGID_70_)" fill="none" stroke="#EB551D" stroke-miterlimit="10" x1="136.2" y1="429.2" x2="136.2" y2="445.9"/>
		</g>
	</g>
	<path fill="none" stroke="#EB551D" stroke-width="2" stroke-miterlimit="10" d="M58.4,445.9c3.4-0.3,12.7-2.6,16.3-18.6
		c4,20.2,44.6,20.3,47.8,0.7c2.4,13.3,9.3,16.8,13.3,17.7"/>
</g>
<rect x="283.4" y="529.6" fill="#FFFFFF" width="9.9" height="2.7"/>
<g>
	<g id="_x3C_INTERSTATE_MARKER_x3E__1_">
		<g>
			<path fill="#4D4D4D" d="M293.5,530.5h-9.4c-0.1,0.5-0.2,1.1-0.2,1.6c0,0.5,0.1,4.8,4.9,6.1c4.8-1.3,4.9-5.7,4.9-6.1
				C293.7,531.5,293.6,531,293.5,530.5z"/>
			<path fill="#4D4D4D" d="M293.4,530.2c-0.2-0.6-0.5-1.3-1-1.9c-0.5,0.1-1.1,0.2-1.8,0.2c-0.5,0-1.2,0-1.9-0.3
				c-0.7,0.2-1.4,0.3-1.9,0.3c-0.7,0-1.3-0.1-1.8-0.2c-0.4,0.6-0.8,1.2-1,1.9H293.4z"/>
		</g>
	</g>
	<g>
		<path fill="#FFFFFF" d="M289.9,532v0.6h-1.7v1c0.2-0.1,0.4-0.1,0.6-0.1c0.4,0,0.7,0.1,1,0.3c0.3,0.2,0.4,0.5,0.4,0.9
			c0,0.4-0.1,0.7-0.4,1c-0.3,0.3-0.6,0.4-1,0.4c-0.5,0-1-0.2-1.3-0.5l0.4-0.5c0,0,0.1,0.1,0.1,0.1s0.2,0.1,0.3,0.2
			c0.2,0.1,0.3,0.1,0.5,0.1c0.2,0,0.4-0.1,0.5-0.2s0.2-0.3,0.2-0.5s-0.1-0.4-0.3-0.5c-0.2-0.1-0.4-0.2-0.6-0.2
			c-0.3,0-0.5,0.1-0.7,0.2l-0.3-0.3V532L289.9,532L289.9,532z"/>
	</g>
</g>
<g>
	<path fill="#545453" d="M125.3,402.9h1.8v4.9h-0.8v-4.2h-1V402.9z"/>
	<path fill="#545453" d="M130.4,407.8v-4.9h0.8v2.1h2.4v-2.1h0.8v4.9h-0.8v-2h-2.4v2H130.4z"/>
	<path fill="#545453" d="M139.7,404.5c0,0.8-0.4,1.3-1.1,1.5l1.3,1.8h-1.1l-1.2-1.6h-1.1v1.6h-0.8v-4.9h1.8c0.7,0,1.3,0.1,1.6,0.4
		C139.6,403.5,139.7,403.9,139.7,404.5z M138.6,405.2c0.2-0.1,0.3-0.4,0.3-0.7c0-0.3-0.1-0.5-0.3-0.7c-0.2-0.1-0.5-0.2-0.9-0.2h-1.1
		v1.8h1C138.1,405.4,138.5,405.3,138.6,405.2z"/>
	<path fill="#545453" d="M144.8,404.8c0.1-0.2,0.2-0.4,0.2-0.6c0-0.2-0.1-0.4-0.2-0.5s-0.3-0.2-0.6-0.2c-0.4,0-0.7,0.2-1,0.6
		l-0.7-0.4c0.2-0.3,0.5-0.6,0.7-0.7s0.6-0.2,1-0.2s0.8,0.1,1.1,0.4c0.3,0.3,0.5,0.6,0.5,1.1c0,0.3-0.1,0.5-0.2,0.7
		c-0.1,0.2-0.4,0.5-0.7,0.9l-1.1,1.2h2.2v0.8h-3.3v-0.7l1.5-1.5C144.4,405.3,144.6,405,144.8,404.8z"/>
	<path fill="#545453" d="M146.8,403.6v-0.7h2.9v0.6l-1.2,1.3c0.4,0,0.8,0.2,1.1,0.4c0.3,0.3,0.4,0.6,0.4,1c0,0.5-0.2,0.9-0.5,1.2
		c-0.3,0.3-0.8,0.4-1.3,0.4s-1.1-0.2-1.6-0.5l0.4-0.7c0.4,0.3,0.8,0.4,1.3,0.4c0.3,0,0.5-0.1,0.7-0.2c0.2-0.1,0.3-0.3,0.3-0.6
		c0-0.2-0.1-0.4-0.3-0.6c-0.2-0.1-0.5-0.2-0.9-0.2c-0.2,0-0.4,0-0.5,0.1v-0.6l1.1-1.3L146.8,403.6L146.8,403.6z"/>
	<path fill="#545453" d="M153.7,407.8h-0.8v-4.9h1.3l1.5,3.1l1.5-3.1h1.3v4.9h-0.8V404l-1.7,3.4h-0.5l-1.7-3.4L153.7,407.8
		L153.7,407.8z"/>
	<path fill="#545453" d="M159.8,402.9h0.8v4.9h-0.8V402.9z"/>
	<path fill="#545453" d="M165.7,402.9h0.8v4.9h-0.9l-2.8-3.6v3.6H162v-4.9h0.8l2.8,3.7V402.9z"/>
</g>
<g>
	<path fill="#545453" d="M389.5,304.4h1.8v4.9h-0.8v-4.2h-1L389.5,304.4L389.5,304.4z"/>
	<path fill="#545453" d="M394.5,309.3v-4.9h0.8v2.1h2.4v-2.1h0.8v4.9h-0.8v-2h-2.4v2H394.5z"/>
	<path fill="#545453" d="M403.9,306c0,0.8-0.4,1.3-1.1,1.5l1.3,1.8h-1l-1.2-1.6h-1.1v1.6H400v-4.9h1.8c0.7,0,1.3,0.1,1.6,0.4
		C403.7,305,403.9,305.4,403.9,306z M402.8,306.7c0.2-0.1,0.3-0.4,0.3-0.7s-0.1-0.5-0.3-0.7c-0.2-0.1-0.5-0.2-0.9-0.2h-1v1.8h1
		C402.3,306.9,402.6,306.8,402.8,306.7z"/>
	<path fill="#545453" d="M409.7,304.4v0.7h-2.1v1.2c0.2-0.1,0.4-0.2,0.7-0.2c0.5,0,0.9,0.1,1.2,0.4c0.3,0.3,0.5,0.6,0.5,1.1
		c0,0.5-0.2,0.9-0.5,1.2c-0.3,0.3-0.8,0.5-1.3,0.5c-0.7,0-1.2-0.2-1.6-0.7l0.4-0.6c0,0,0.1,0.1,0.1,0.1c0.1,0.1,0.2,0.1,0.4,0.2
		c0.2,0.1,0.4,0.1,0.6,0.1s0.4-0.1,0.6-0.2c0.2-0.1,0.3-0.3,0.3-0.6c0-0.3-0.1-0.5-0.3-0.6c-0.2-0.1-0.5-0.2-0.8-0.2
		s-0.6,0.1-0.9,0.2l-0.4-0.4v-2.4L409.7,304.4L409.7,304.4z"/>
	<path fill="#545453" d="M411.3,308.7c-0.3-0.5-0.5-1.1-0.5-1.8c0-0.8,0.2-1.4,0.5-1.8c0.3-0.5,0.8-0.7,1.5-0.7
		c0.7,0,1.2,0.2,1.5,0.7c0.3,0.5,0.5,1.1,0.5,1.8c0,0.8-0.2,1.4-0.5,1.8c-0.3,0.5-0.8,0.7-1.5,0.7
		C412.1,309.4,411.6,309.1,411.3,308.7z M411.9,305.5c-0.2,0.3-0.3,0.8-0.3,1.3c0,0.5,0.1,1,0.3,1.3c0.2,0.3,0.5,0.5,0.9,0.5
		c0.4,0,0.7-0.2,0.9-0.5c0.2-0.3,0.3-0.8,0.3-1.3c0-0.6-0.1-1-0.3-1.3c-0.2-0.3-0.5-0.5-0.9-0.5C412.4,305,412.1,305.2,411.9,305.5z
		"/>
	<path fill="#545453" d="M418.6,309.3h-0.8v-4.9h1.3l1.5,3.1l1.5-3.1h1.3v4.9h-0.8v-3.8l-1.7,3.4h-0.5l-1.7-3.4L418.6,309.3
		L418.6,309.3z"/>
	<path fill="#545453" d="M424.6,304.4h0.8v4.9h-0.8V304.4z"/>
	<path fill="#545453" d="M430.5,304.4h0.8v4.9h-0.9l-2.8-3.6v3.6h-0.8v-4.9h0.8l2.8,3.7V304.4z"/>
</g>
<g>
	<path fill="#545453" d="M80.6,478.2h1.8v4.9h-0.8v-4.2h-1V478.2z"/>
	<path fill="#545453" d="M85.6,483.1v-4.9h0.8v2.1h2.4v-2.1h0.8v4.9h-0.8v-2h-2.4v2H85.6z"/>
	<path fill="#545453" d="M95,479.8c0,0.8-0.4,1.3-1.1,1.5l1.3,1.8h-1.1l-1.2-1.6h-1.1v1.6h-0.8v-4.9h1.8c0.7,0,1.3,0.1,1.6,0.4
		C94.8,478.8,95,479.2,95,479.8z M93.9,480.5c0.2-0.1,0.3-0.4,0.3-0.7s-0.1-0.5-0.3-0.7c-0.2-0.1-0.5-0.2-0.9-0.2h-1.1v1.8h1
		C93.4,480.7,93.7,480.6,93.9,480.5z"/>
	<path fill="#545453" d="M99.8,481.1v-0.9h0.8v0.9h0.6v0.7h-0.6v1.2h-0.8v-1.2h-2.1v-0.7l1.8-2.9h0.9l-1.8,2.9L99.8,481.1
		L99.8,481.1z"/>
	<path fill="#545453" d="M104.8,478.2v0.7h-2.1v1.2c0.2-0.1,0.4-0.2,0.7-0.2c0.5,0,0.9,0.1,1.2,0.4c0.3,0.3,0.5,0.6,0.5,1.1
		s-0.2,0.9-0.5,1.2c-0.3,0.3-0.8,0.5-1.3,0.5c-0.7,0-1.2-0.2-1.6-0.7l0.4-0.6c0,0,0.1,0.1,0.1,0.1c0.1,0.1,0.2,0.1,0.4,0.2
		c0.2,0.1,0.4,0.1,0.6,0.1s0.4-0.1,0.6-0.2c0.2-0.1,0.3-0.3,0.3-0.6s-0.1-0.5-0.3-0.6c-0.2-0.1-0.5-0.2-0.8-0.2s-0.6,0.1-0.9,0.2
		l-0.4-0.4v-2.4L104.8,478.2L104.8,478.2z"/>
	<path fill="#545453" d="M108.9,483.1H108v-4.9h1.3l1.5,3.1l1.5-3.1h1.3v4.9h-0.8v-3.8l-1.7,3.4h-0.5l-1.7-3.4L108.9,483.1
		L108.9,483.1z"/>
	<path fill="#545453" d="M114.9,478.2h0.8v4.9h-0.8V478.2z"/>
	<path fill="#545453" d="M120.8,478.2h0.8v4.9h-0.9l-2.8-3.6v3.6h-0.8v-4.9h0.8l2.8,3.7V478.2z"/>
</g>
<rect x="189.6" y="340.3" fill="#FFFFFF" width="91.4" height="12.1"/>
<g>
	<path fill="#4D4D4D" d="M182,343.6c-0.4,0-0.8,0.1-1.1,0.3c-0.3,0.2-0.4,0.5-0.4,0.8s0.1,0.6,0.4,0.8c0.3,0.2,0.9,0.4,1.8,0.6
		s1.6,0.5,2.1,0.9c0.5,0.4,0.7,1,0.7,1.8s-0.3,1.4-0.9,1.9c-0.6,0.5-1.4,0.7-2.3,0.7c-1.4,0-2.7-0.5-3.8-1.5l1-1.2
		c0.9,0.8,1.9,1.2,2.9,1.2c0.5,0,0.9-0.1,1.2-0.3c0.3-0.2,0.4-0.5,0.4-0.8s-0.1-0.6-0.4-0.8c-0.3-0.2-0.7-0.4-1.4-0.5
		c-0.7-0.2-1.2-0.3-1.5-0.4s-0.7-0.3-0.9-0.5c-0.5-0.4-0.8-1-0.8-1.9c0-0.8,0.3-1.5,0.9-1.9c0.6-0.5,1.4-0.7,2.3-0.7
		c0.6,0,1.2,0.1,1.7,0.3c0.6,0.2,1.1,0.5,1.5,0.8l-0.8,1.2c-0.3-0.2-0.6-0.4-1.1-0.6C182.8,343.7,182.4,343.6,182,343.6z"/>
	<path fill="#4D4D4D" d="M188.6,349.4l-0.9,2.1H186l4-9.1h1.6l4,9.1H194l-0.9-2.1H188.6z M192.5,348l-1.6-3.7l-1.6,3.7H192.5z"/>
	<path fill="#4D4D4D" d="M201,350.1c0.5,0,1-0.1,1.4-0.3s0.8-0.5,1.2-0.8l1,1c-1,1.1-2.1,1.6-3.5,1.6s-2.5-0.4-3.4-1.3
		c-0.9-0.9-1.4-2-1.4-3.3c0-1.3,0.5-2.5,1.4-3.4c0.9-0.9,2.1-1.3,3.5-1.3s2.6,0.5,3.5,1.6l-1,1.1c-0.4-0.4-0.8-0.7-1.2-0.9
		s-0.8-0.2-1.4-0.2c-0.9,0-1.7,0.3-2.3,0.9c-0.6,0.6-0.9,1.3-0.9,2.3c0,0.9,0.3,1.7,0.9,2.3C199.4,349.8,200.2,350.1,201,350.1z"/>
	<path fill="#4D4D4D" d="M213.7,345.3c0,1.5-0.7,2.4-2,2.8l2.4,3.3h-1.9l-2.2-3h-2v3h-1.5v-9.1h3.4c1.4,0,2.4,0.2,3,0.7
		C213.4,343.6,213.7,344.3,213.7,345.3z M211.6,346.6c0.3-0.3,0.5-0.7,0.5-1.3c0-0.6-0.2-1-0.5-1.2s-0.9-0.3-1.7-0.3H208v3.2h1.9
		C210.7,347,211.3,346.9,211.6,346.6z"/>
	<path fill="#4D4D4D" d="M217.1,349.4l-0.9,2.1h-1.6l4-9.1h1.6l4,9.1h-1.6l-0.9-2.1H217.1z M221,348l-1.6-3.7l-1.6,3.7H221z"/>
	<path fill="#4D4D4D" d="M227,351.5h-1.5v-9.1h2.4l2.7,5.7l2.7-5.7h2.4v9.1h-1.5v-7.1l-3.2,6.3h-0.9l-3.1-6.3L227,351.5L227,351.5z"
		/>
	<path fill="#4D4D4D" d="M244.6,342.4v1.4h-4.8v2.4h4.3v1.4h-4.3v2.4h5v1.4h-6.5v-9.1L244.6,342.4z"/>
	<path fill="#4D4D4D" d="M253.5,342.4h1.5v9.1h-1.7l-5.1-6.6v6.6h-1.5v-9.1h1.5l5.3,6.8L253.5,342.4L253.5,342.4z"/>
	<path fill="#4D4D4D" d="M260.9,343.8v7.7h-1.5v-7.7h-2.7v-1.4h7v1.4H260.9z"/>
	<path fill="#4D4D4D" d="M272.7,350.2c-0.9,0.9-2,1.3-3.4,1.3s-2.5-0.4-3.4-1.3s-1.4-2-1.4-3.3c0-1.3,0.5-2.4,1.4-3.3
		c0.9-0.9,2-1.3,3.4-1.3s2.5,0.4,3.4,1.3c0.9,0.9,1.4,2,1.4,3.3C274,348.2,273.6,349.3,272.7,350.2z M271.5,344.5
		c-0.6-0.6-1.4-1-2.3-1s-1.7,0.3-2.3,1c-0.6,0.6-0.9,1.4-0.9,2.3c0,0.9,0.3,1.7,0.9,2.3c0.6,0.6,1.4,1,2.3,1s1.7-0.3,2.3-1
		c0.6-0.6,0.9-1.4,0.9-2.3C272.5,345.9,272.1,345.2,271.5,344.5z"/>
</g>
<rect x="189.6" y="314.6" fill="#FFFFFF" width="63.6" height="14.1"/>
<g>
	<path fill="#EB551D" d="M231.6,309.1"/>
	<g>
		<polygon fill="#EB551D" points="229.5,287.7 231.2,299.5 229.5,303.4 227.4,299.5 		"/>
	</g>
	<g>
		<ellipse fill="#545453" cx="229.2" cy="305.6" rx="7.9" ry="8.4"/>
	</g>
	<g>
		<rect x="219.5" y="304.1" fill="#EB551D" width="19.3" height="9.3"/>
	</g>
	<g>
		<rect x="214.7" y="316.6" fill="#FFFFFF" width="28.1" height="11.6"/>
	</g>
	<g>
		<rect x="189.4" y="315.9" fill="#EB551D" width="79.5" height="14.3"/>
	</g>
	<g>
		<polygon fill="#EB551D" points="229,308.3 207.2,315.1 250.6,315.1 		"/>
		<path fill="#FFFFFF" d="M254.1,315.7h-50.4l25.2-7.9L254.1,315.7z M210.7,314.6h36.4l-18.2-5.7L210.7,314.6z"/>
	</g>
	<g>
		<line fill="none" x1="214.7" y1="315.6" x2="214.7" y2="333.3"/>
		<rect x="214" y="315.6" fill="#FFFFFF" width="1.4" height="17.8"/>
	</g>
	<g>
		<line fill="none" x1="219" y1="315.6" x2="219" y2="333.3"/>
		<rect x="218.3" y="315.6" fill="#FFFFFF" width="1.4" height="17.8"/>
	</g>
	<g>
		<line fill="none" x1="224" y1="315.6" x2="224" y2="333.3"/>
		<rect x="223.3" y="315.6" fill="#FFFFFF" width="1.4" height="17.8"/>
	</g>
	<g>
		<line fill="none" x1="234" y1="315.6" x2="234" y2="333.3"/>
		<rect x="233.3" y="315.6" fill="#FFFFFF" width="1.4" height="17.8"/>
	</g>
	<g>
		<line fill="none" x1="239" y1="315.6" x2="239" y2="333.3"/>
		<rect x="238.2" y="315.6" fill="#FFFFFF" width="1.4" height="17.8"/>
	</g>
	<g>
		<line fill="none" x1="243.2" y1="315.6" x2="243.2" y2="333.3"/>
		<rect x="242.5" y="315.6" fill="#FFFFFF" width="1.4" height="17.8"/>
	</g>
	<g>
		<line fill="none" x1="219.5" y1="304.1" x2="238.8" y2="304.1"/>
		<rect x="219.5" y="303.6" fill="#FFFFFF" width="19.3" height="1.1"/>
	</g>
	<g>
		<rect x="258.1" y="312.8" fill="#EB551D" width="10.8" height="2.4"/>
	</g>
	<g>
		<rect x="189.6" y="312.8" fill="#EB551D" width="10.8" height="2.4"/>
	</g>
	<g>
		<rect x="247.4" y="318" fill="#545453" width="1.6" height="4.4"/>
	</g>
	<g>
		<rect x="251.6" y="318" fill="#545453" width="1.6" height="4.4"/>
	</g>
	<g>
		<rect x="255.9" y="318" fill="#545453" width="1.6" height="4.4"/>
	</g>
	<g>
		<rect x="260.1" y="318" fill="#545453" width="1.6" height="4.4"/>
	</g>
	<g>
		<rect x="264.3" y="318" fill="#545453" width="1.6" height="4.4"/>
	</g>
	<g>
		<rect x="247.4" y="324.3" fill="#545453" width="1.6" height="4.4"/>
	</g>
	<g>
		<rect x="251.6" y="324.3" fill="#545453" width="1.6" height="4.4"/>
	</g>
	<g>
		<rect x="255.9" y="324.3" fill="#545453" width="1.6" height="4.4"/>
	</g>
	<g>
		<rect x="260.1" y="324.3" fill="#545453" width="1.6" height="4.4"/>
	</g>
	<g>
		<rect x="264.3" y="324.3" fill="#545453" width="1.6" height="4.4"/>
	</g>
	<g>
		<rect x="192.7" y="318" fill="#545453" width="1.6" height="4.4"/>
	</g>
	<g>
		<rect x="196.9" y="318" fill="#545453" width="1.6" height="4.4"/>
	</g>
	<g>
		<rect x="201.1" y="318" fill="#545453" width="1.6" height="4.4"/>
	</g>
	<g>
		<rect x="205.4" y="318" fill="#545453" width="1.6" height="4.4"/>
	</g>
	<g>
		<rect x="209.6" y="318" fill="#545453" width="1.6" height="4.4"/>
	</g>
	<g>
		<rect x="192.7" y="324.3" fill="#545453" width="1.6" height="4.4"/>
	</g>
	<g>
		<rect x="196.9" y="324.3" fill="#545453" width="1.6" height="4.4"/>
	</g>
	<g>
		<rect x="201.1" y="324.3" fill="#545453" width="1.6" height="4.4"/>
	</g>
	<g>
		<rect x="205.4" y="324.3" fill="#545453" width="1.6" height="4.4"/>
	</g>
	<g>
		<rect x="209.6" y="324.3" fill="#545453" width="1.6" height="4.4"/>
	</g>
	<g>
		<rect x="226.2" y="320.6" fill="#545453" width="6" height="5.6"/>
	</g>
	<g>
		<rect x="214.7" y="326.5" fill="#EB551D" width="28.5" height="6.8"/>
		<path fill="#FFFFFF" d="M243.8,333.9h-29.5V326h29.5V333.9z M215.3,332.8h27.4v-5.7h-27.4V332.8z"/>
	</g>
	<g>
		<rect x="228.8" y="320.6" fill="#FFFFFF" width="0.4" height="5.9"/>
	</g>
	<path fill="#545453" d="M220.9,330.2c0-0.7-0.6-1.3-1.3-1.3s-1.2,0.6-1.3,1.3h0v2.5h2.5L220.9,330.2L220.9,330.2z"/>
	<path fill="#545453" d="M225.7,330.2c0-0.7-0.6-1.3-1.3-1.3s-1.2,0.6-1.3,1.3h0v2.5h2.5L225.7,330.2L225.7,330.2z"/>
	<path fill="#545453" d="M230.5,330.2c0-0.7-0.6-1.3-1.3-1.3s-1.2,0.6-1.3,1.3h0v2.5h2.5L230.5,330.2L230.5,330.2z"/>
	<path fill="#545453" d="M235.4,330.2c0-0.7-0.6-1.3-1.3-1.3s-1.2,0.6-1.3,1.3h0v2.5h2.5L235.4,330.2L235.4,330.2z"/>
	<path fill="#545453" d="M240.2,330.2c0-0.7-0.6-1.3-1.3-1.3s-1.2,0.6-1.3,1.3h0v2.5h2.5L240.2,330.2L240.2,330.2z"/>
</g>
<rect x="353.5" y="238.9" fill="#FFFFFF" width="6.8" height="7.1"/>
<g>
	<g id="_x3C_INTERSTATE_MARKER_x3E__3_">
		<g>
			<path fill="#4D4D4D" d="M360.8,241h-9.4c-0.1,0.5-0.2,1.1-0.2,1.6c0,0.5,0.1,4.8,4.9,6.1c4.8-1.3,4.9-5.6,4.9-6.1
				C361.1,242.1,361,241.6,360.8,241z"/>
			<path fill="#4D4D4D" d="M360.8,240.8c-0.2-0.6-0.5-1.3-1-1.9c-0.5,0.1-1.1,0.2-1.8,0.2c-0.5,0-1.2,0-1.9-0.3
				c-0.7,0.2-1.4,0.3-1.9,0.3c-0.7,0-1.3-0.1-1.8-0.2c-0.4,0.6-0.8,1.2-1,1.9H360.8z"/>
		</g>
	</g>
	<g>
		<path fill="#FFFFFF" d="M353.5,242.3c0.3-0.2,0.6-0.3,1-0.3s0.7,0.1,1,0.3c0.3,0.2,0.4,0.5,0.4,0.8c0,0.3-0.1,0.6-0.4,0.8
			c0.4,0.2,0.6,0.6,0.6,1c0,0.3-0.1,0.6-0.4,0.9c-0.3,0.2-0.6,0.4-1.1,0.4c-0.4,0-0.8-0.1-1.1-0.4c-0.3-0.2-0.4-0.5-0.4-0.9
			c0-0.4,0.2-0.8,0.6-1c-0.3-0.2-0.4-0.5-0.4-0.8C353.1,242.8,353.3,242.5,353.5,242.3z M353.9,245.4c0.2,0.1,0.4,0.2,0.6,0.2
			c0.2,0,0.4-0.1,0.6-0.2c0.2-0.1,0.3-0.3,0.3-0.5s-0.1-0.4-0.3-0.5c-0.2-0.1-0.4-0.2-0.6-0.2c-0.2,0-0.4,0.1-0.6,0.2
			c-0.2,0.1-0.3,0.3-0.3,0.5C353.7,245.1,353.7,245.3,353.9,245.4z M354,243.6c0.1,0.1,0.3,0.2,0.5,0.2c0.2,0,0.4-0.1,0.5-0.2
			c0.1-0.1,0.2-0.3,0.2-0.4c0-0.2-0.1-0.3-0.2-0.4c-0.1-0.1-0.3-0.2-0.5-0.2s-0.4,0.1-0.5,0.2c-0.1,0.1-0.2,0.3-0.2,0.4
			C353.8,243.3,353.8,243.4,354,243.6z"/>
		<path fill="#FFFFFF" d="M356.7,245.6c-0.3-0.4-0.4-0.9-0.4-1.5s0.1-1.1,0.4-1.5c0.3-0.4,0.7-0.6,1.2-0.6s1,0.2,1.2,0.6
			c0.3,0.4,0.4,0.9,0.4,1.5s-0.1,1.1-0.4,1.5c-0.3,0.4-0.7,0.6-1.2,0.6S357,246,356.7,245.6z M357.2,243c-0.2,0.3-0.2,0.6-0.2,1.1
			c0,0.4,0.1,0.8,0.2,1.1c0.2,0.3,0.4,0.4,0.7,0.4s0.6-0.1,0.7-0.4c0.2-0.3,0.2-0.6,0.2-1.1s-0.1-0.8-0.2-1.1
			c-0.2-0.3-0.4-0.4-0.7-0.4S357.4,242.7,357.2,243z"/>
	</g>
</g>
<g>
	<path fill="#FFFFFF" d="M218.3,259.1v6.7c0,1.5-0.1,2-0.6,2.6c-0.4,0.5-1,0.8-1.7,0.8c-0.7,0-1.3-0.3-1.7-0.8
		c-0.5-0.6-0.6-1.1-0.6-2.6v-6.7h1.5v6.5c0,0.9,0,1.4,0.1,1.6c0.1,0.4,0.4,0.6,0.7,0.6c0.4,0,0.7-0.2,0.8-0.7c0-0.2,0.1-0.7,0.1-1.5
		v-6.5H218.3z"/>
	<path fill="#FFFFFF" d="M223.2,269l-2.2-6.1v6.1h-1.4v-9.9h1.5l2,5.9v-5.9h1.4v9.9H223.2z"/>
	<path fill="#FFFFFF" d="M229.8,269h-4v-9.9h1.5v8.5h2.5V269z"/>
	<path fill="#FFFFFF" d="M234.7,260.5h-2.6v2.7h1.8v1.4h-1.8v3.1h2.6v1.4h-4v-9.9h4V260.5z"/>
	<path fill="#FFFFFF" d="M237.6,266.8l-0.3,2.2h-1.5l1.6-9.9h1.9l1.7,9.9h-1.5l-0.3-2.2H237.6z M238.3,261.5l-0.6,4h1.2L238.3,261.5
		z"/>
	<path fill="#FFFFFF" d="M245.1,261.5c-0.1-0.9-0.3-1.2-0.9-1.2c-0.5,0-0.8,0.4-0.8,1c0,0.7,0.3,1.1,1.3,2.1c1.5,1.4,1.9,2,1.9,3.2
		c0,1.5-1,2.5-2.3,2.5c-1.5,0-2.4-1.1-2.5-2.7l1.4-0.3c0,1,0.4,1.5,1.1,1.5c0.5,0,0.9-0.4,0.9-1.1c0-0.4-0.1-0.7-0.4-1.1
		c-0.2-0.3-0.3-0.4-1.2-1.2c-1.2-1.2-1.7-1.9-1.7-3c0-1.5,0.9-2.5,2.3-2.5c1.3,0,2.1,0.8,2.2,2.4L245.1,261.5z"/>
	<path fill="#FFFFFF" d="M249.1,264.5v4.5h-1.5v-9.9h1.5v4.1h1.6v-4.1h1.5v9.9h-1.5v-4.5H249.1z"/>
	<path fill="#FFFFFF" d="M257.6,260.5h-2.6v2.7h1.8v1.4h-1.8v3.1h2.6v1.4h-4v-9.9h4V260.5z"/>
	<path fill="#FFFFFF" d="M258.8,259.1h2.1c1.7,0,2.5,0.9,2.5,2.8v4.3c0,1.9-0.8,2.8-2.5,2.8h-2.1V259.1z M260.7,267.6
		c0.4,0,0.7-0.1,0.9-0.4c0.2-0.3,0.3-0.6,0.3-1.3v-3.8c0-0.7-0.1-1-0.3-1.3c-0.2-0.3-0.5-0.4-0.9-0.4h-0.5v7.1H260.7z"/>
</g>
<g>
	<g>
		<polygon fill="#FFFFFF" points="211.9,250.9 215.4,250.9 215.4,256.8 217.2,256.8 217.2,250.9 220.7,250.9 220.7,249.1 
			211.9,249.1 		"/>
		<polygon fill="#FFFFFF" points="228.3,252.1 223.7,252.1 223.7,249.1 221.9,249.1 221.9,256.8 223.7,256.8 223.7,253.9 
			228.3,253.9 228.3,256.8 230.1,256.8 230.1,249.1 228.3,249.1 		"/>
		<path fill="#FFFFFF" d="M238.9,249.1h-7.5v7.7h1.8v-5.9h5.6c0.3,0,0.5,0.3,0.5,0.8c0,0.5-0.2,0.8-0.5,0.8h-4.7l3.9,4.3h2.5
			l-2.3-2.5h0.7c0.7,0,1.2-0.3,1.6-0.8c0.4-0.5,0.6-1.1,0.6-1.8s-0.2-1.3-0.6-1.8C240.2,249.4,239.6,249.1,238.9,249.1z"/>
		<rect x="242.4" y="249.1" fill="#FFFFFF" width="1.8" height="7.7"/>
		<polygon fill="#FFFFFF" points="249.9,254.4 247.2,249.1 245.2,249.1 249.1,256.8 250.7,256.8 254.6,249.1 252.6,249.1 		"/>
		<polygon fill="#FFFFFF" points="263.9,250.9 263.9,249.1 255.7,249.1 255.7,256.8 263.9,256.8 263.9,255 257.5,255 257.5,253.9 
			263.5,253.9 263.5,252.1 257.5,252.1 257.5,250.9 		"/>
	</g>
	<g>
		<g>
			<polygon fill="#FFFFFF" points="284.9,269.5 289.7,269.5 297.2,258.4 289.7,247.4 284.9,247.4 292.5,258.4 			"/>
			<polygon fill="#FFFFFF" points="275.5,269.5 280.2,269.5 287.8,258.4 280.2,247.4 275.5,247.4 283,258.4 			"/>
			<polygon fill="#FFFFFF" points="266,269.5 270.8,269.5 278.3,258.4 270.8,247.4 266,247.4 273.6,258.4 			"/>
		</g>
		<g>
			<polygon fill="#FFFFFF" points="292.5,258.4 284.9,269.5 289.7,269.5 297.2,258.4 			"/>
			<polygon fill="#FFFFFF" points="283,258.4 275.5,269.5 280.2,269.5 287.8,258.4 			"/>
			<polygon fill="#FFFFFF" points="273.6,258.4 266,269.5 270.8,269.5 278.3,258.4 			"/>
		</g>
	</g>
</g>
</svg>
