<svg id="Layer_1" xmlns="http://www.w3.org/2000/svg" xmlns:xlink="http://www.w3.org/1999/xlink" width="689.4" height="468.5" viewBox="11.7 54.7 689.4 468.5"><style>.st0{fill:#69E2FF;} .st1{fill:#FFFFFF;} .st2{fill:none;stroke:#545453;stroke-width:2;stroke-miterlimit:10;} .st3{fill:none;stroke:#545453;stroke-miterlimit:10;} .st4{fill:none;stroke:#545453;stroke-width:0.25;stroke-miterlimit:10;} .st5{fill:#4D4D4D;} .st6{fill:#E59E26;} .st7{fill:none;stroke:#FFFFFF;stroke-miterlimit:10;} .st8{fill:none;} .st9{fill:#545453;} .st10{clip-path:url(#SVGID_2_);fill:none;stroke:#E59E26;stroke-width:3;stroke-miterlimit:10;} .st11{clip-path:url(#SVGID_4_);fill:none;stroke:#E59E26;stroke-miterlimit:10;} .st12{clip-path:url(#SVGID_6_);fill:none;stroke:#E59E26;stroke-miterlimit:10;} .st13{clip-path:url(#SVGID_8_);fill:none;stroke:#E59E26;stroke-miterlimit:10;} .st14{clip-path:url(#SVGID_10_);fill:none;stroke:#E59E26;stroke-miterlimit:10;} .st15{clip-path:url(#SVGID_12_);fill:none;stroke:#E59E26;stroke-miterlimit:10;} .st16{clip-path:url(#SVGID_14_);fill:none;stroke:#E59E26;stroke-miterlimit:10;} .st17{clip-path:url(#SVGID_16_);fill:none;stroke:#E59E26;stroke-width:3;stroke-miterlimit:10;} .st18{clip-path:url(#SVGID_18_);fill:none;stroke:#E59E26;stroke-miterlimit:10;} .st19{clip-path:url(#SVGID_20_);fill:none;stroke:#E59E26;stroke-miterlimit:10;} .st20{clip-path:url(#SVGID_22_);fill:none;stroke:#E59E26;stroke-miterlimit:10;} .st21{clip-path:url(#SVGID_24_);fill:none;stroke:#E59E26;stroke-miterlimit:10;} .st22{clip-path:url(#SVGID_26_);fill:none;stroke:#E59E26;stroke-miterlimit:10;} .st23{clip-path:url(#SVGID_28_);fill:none;stroke:#E59E26;stroke-miterlimit:10;} .st24{clip-path:url(#SVGID_30_);fill:none;stroke:#E59E26;stroke-miterlimit:10;} .st25{clip-path:url(#SVGID_32_);fill:none;stroke:#E59E26;stroke-miterlimit:10;} .st26{clip-path:url(#SVGID_34_);fill:none;stroke:#E59E26;stroke-miterlimit:10;} .st27{clip-path:url(#SVGID_36_);fill:none;stroke:#E59E26;stroke-miterlimit:10;} .st28{clip-path:url(#SVGID_38_);fill:none;stroke:#E59E26;stroke-miterlimit:10;} .st29{clip-path:url(#SVGID_40_);fill:none;stroke:#E59E26;stroke-miterlimit:10;} .st30{clip-path:url(#SVGID_42_);fill:none;stroke:#E59E26;stroke-miterlimit:10;} .st31{clip-path:url(#SVGID_44_);fill:none;stroke:#E59E26;stroke-miterlimit:10;} .st32{clip-path:url(#SVGID_46_);fill:none;stroke:#E59E26;stroke-miterlimit:10;} .st33{clip-path:url(#SVGID_48_);fill:none;stroke:#E59E26;stroke-miterlimit:10;} .st34{clip-path:url(#SVGID_50_);fill:none;stroke:#E59E26;stroke-miterlimit:10;} .st35{clip-path:url(#SVGID_52_);fill:none;stroke:#E59E26;stroke-miterlimit:10;} .st36{clip-path:url(#SVGID_54_);fill:none;stroke:#E59E26;stroke-miterlimit:10;} .st37{clip-path:url(#SVGID_56_);fill:none;stroke:#E59E26;stroke-miterlimit:10;} .st38{clip-path:url(#SVGID_58_);fill:none;stroke:#E59E26;stroke-width:3;stroke-miterlimit:10;} .st39{clip-path:url(#SVGID_60_);fill:none;stroke:#E59E26;stroke-miterlimit:10;} .st40{clip-path:url(#SVGID_62_);fill:none;stroke:#E59E26;stroke-miterlimit:10;} .st41{clip-path:url(#SVGID_64_);fill:none;stroke:#E59E26;stroke-miterlimit:10;} .st42{clip-path:url(#SVGID_66_);fill:none;stroke:#E59E26;stroke-miterlimit:10;} .st43{clip-path:url(#SVGID_68_);fill:none;stroke:#E59E26;stroke-miterlimit:10;} .st44{clip-path:url(#SVGID_70_);fill:none;stroke:#E59E26;stroke-miterlimit:10;} .st45{fill:none;stroke:#E59E26;stroke-width:2;stroke-miterlimit:10;}</style><path class="st0" d="M11.7 63.8H715v459.4H11.7z"/><path class="st1" d="M194.3 374.4c-5.6-5.5-16.1-16.1-15.7-16.8.5-1 0 4.3 0 4.3l-3.8 1.9-7.6-5.3-10.5-14.2-10.5-5-3.3-3.8v4.8l-3.8 4.1-4.3 2.2h-1.4l.2-.5 4.6-11 2.9-16.8-5.7-7.7 1.9-2.4 19.1 23h2.4l-27.2-38.9-11-23-24.3-14.9L84.9 239l-45.8-51.7 2.7-14.3 2.8-14.4-13.1-24.7-19.8-86.2h1051.1l-12.3 529.2H288.2l10-26.9-11.9-23-10-8.2-4.3 2.9h-21.4l-14.8-15.4-12.4-14.4-12.9-17.3 5.2-16.8-6.7-26.9h-5.7l-3.8-7.2 3.8-18.7-4.2-20.1 8-7.3h6.7l2.9 26.9 17.6 18.7 26.7 18.2 13.3-1.4-.5-2.9-18.5-10.4-2.4-16.3-4.2-1.9-2.4-9.6-12.9-7.7-8.1-9.6 1-5.5-1.4-13.2-12.4-9.6 9.1-8.9h7.1l6.2-7.4 13.9 1.9-12.9-6.2H231l-8.6-9.1h-7.6l-12.9 4.3v13l2.9 5.8 2.9.5-2.9 3.8-5.3 2.9 10 14.4-2.4 1.9-5.2-3.4 2.9 7.7-7.1 3.3-3.4-3.4"/><path class="st2" d="M331.9 269.2v15.3l4.8 38.4 9.6 14.4v12l9.6 25.9 5.8 14.9-5.3 15.8-3.4 4.3 1 26.4 25.9 30.7 7.2 34.5 39.6 53.8 27.3 44.1M238.8 132.4l4.3 30.3 30.3 61.4 25.4 27.3h25.9l4.9 5.8"/><path class="st0" d="M256.6 345.9l8.2-2.4v8.7h11l2.9 4.8 7.4-2.9 9.8.5 13 2.4-2.4-4.8 6.5-2.4 5.5-1.5 5.3 3.9v2.8l-2.9 1 2.9 8.9-2 6.5 2 9.1h-5.3v-13.9l-5.5-1.7h-11.3l-11.5-2.9-10.6-2.6h-7.1l-5.2-1-7.8-1.9-8.5 3.2-5.4-.3 6.2-7.2z"/><path class="st1" d="M258.9 198.5h6.8v4.9h-6.8z"/><path class="st3" d="M275.8 417.4l49.9-7.7 31.2-5.2M323.8 410.9l30.2 25.7"/><path class="st3" d="M323.8 534.5l-4.8-14.9-27.4-28.8-8.6-23.5-9.6-19.7 9.6-11-5.8-12.8-10.1-27-11-13 3.4-12-13.9-12.4 5.7-12.5-8-12.9"/><path class="st2" d="M519.5 129.6c-1.4 2.9-12 10.1-12 10.1h-14.4l-8.2-2.4-21.1 6.2-11-4.3-31.2 25.9-14.9 8.6-7.7 22.1-12 18.2-30.2 33.6-23 19.9-1.9 1.7-12.5-1.9-20.1 7.7-37.4 36.5-5.3 12.5-20.1 15.4-2.9 12v9.6l-11 9.6v10.6l3.4 18.2 16.3 15.4 14.4 18.2 19.2 26.9 1.4 15.4-3.8 6.7"/><path class="st3" d="M331.9 269.2l15.4 2.4 18.8-8.7 4.9-4.8 30-4.3 20.1-11"/><path class="st4" d="M534.8 205.8l-7.2 15.4-11.9 10.1-29.3 4.3h-25l-20.1 7.2h-20.2"/><path class="st0" d="M516.1 185.7l-4.8-2.4v-11l2.4-3.4 5.8-2.4 4.3-9.5 11-3.4 4.4 2.4 1.5 9.5-3.4 8.4 2 11.3-.1 11.6-4.4 10h-5.2l-6.7-3.8-5.8-6.2z"/><path class="st3" d="M331.9 269.2l10.5 17.7 15.4 30.2 8.3 20.2-2.5 19.7 2.5 20.6 8 23.5 23.5 25.9 19.2 26.9 16.3 14.4 35.1 16.3 17.7 17.2 62.4 63.4 27.8 34.5M272.5 222.3v68l-5.2 15.8M211.3 405.5l.3 3.2-5.9 2.2-2.9 6.5 4.8 13 2.9 6.2 12 16.3 8.2 7.7 14.9 10.1s17.7 10.1 19.6 11c1.9 1 10.6 0 10.6 0l10.1-3.7-8.8-4.8-20.5-5.8-4.3-5.8-13.4-7.7-12.5-11.5-12-8.2-2.9-10.5 1.5-2.6-1.3-12.4M275.8 417.4h-24l-6.2-4.3-.7-8.6-13.3-7.7h-6.2M222.5 380.9l-16.3-3.8-8.3-3.8-2.7-2.9V356l-5.8-7.7v-9.6l-5.2-4.7v-8.2l-14.9-8.7v-26.8l-8.7-11.3-13.4-18v-12.9l-14.9-13-6.2-15.3"/><path class="st5" d="M162.3 365.6c-.4 0-.8.1-1.1.3-.3.2-.4.5-.4.8s.1.6.4.8c.3.2.9.4 1.8.6.9.2 1.6.5 2.1.9s.7 1 .7 1.8-.3 1.4-.9 1.9c-.6.5-1.4.7-2.3.7-1.4 0-2.7-.5-3.8-1.5l1-1.2c.9.8 1.9 1.2 2.9 1.2.5 0 .9-.1 1.2-.3.3-.2.4-.5.4-.8s-.1-.6-.4-.8c-.3-.2-.7-.4-1.4-.5-.7-.2-1.2-.3-1.5-.4-.3-.1-.7-.3-.9-.5-.5-.4-.8-1-.8-1.9 0-.8.3-1.5.9-1.9.6-.5 1.4-.7 2.3-.7.6 0 1.2.1 1.7.3.6.2 1.1.5 1.5.8l-.8 1.2c-.3-.2-.6-.4-1.1-.6-.6-.1-1.1-.2-1.5-.2zM168.9 371.4l-.9 2.1h-1.6l4-9.1h1.6l4 9.1h-1.6l-.9-2.1h-4.6zm3.9-1.4l-1.6-3.7-1.6 3.7h3.2zM184 364.4h1.5v9.1h-1.7l-5.1-6.6v6.6h-1.5v-9.1h1.5l5.3 6.8v-6.8zM137.3 381.4v2.5h4v1.4h-4v3.7h-1.5v-9.1h6v1.4l-4.5.1zM150.8 382.9c0 1.5-.7 2.4-2 2.8l2.4 3.3h-1.9l-2.2-3h-2v3h-1.5v-9.1h3.4c1.4 0 2.4.2 3 .7.5.5.8 1.3.8 2.3zm-2 1.3c.3-.3.5-.7.5-1.3 0-.6-.2-1-.5-1.2s-.9-.3-1.7-.3h-1.9v3.2h1.8c.9 0 1.5-.2 1.8-.4zM154.3 386.9l-.9 2.1h-1.6l4-9.1h1.6l4 9.1h-1.6l-.9-2.1h-4.6zm3.9-1.4l-1.6-3.7-1.6 3.7h3.2zM169.4 380h1.6v9.1h-1.7l-5.1-6.6v6.6h-1.5V380h1.5l5.3 6.8V380h-.1zM177.6 387.6c.5 0 1-.1 1.4-.3s.8-.5 1.2-.8l1 1c-1 1.1-2.1 1.6-3.5 1.6s-2.5-.4-3.4-1.3c-.9-.9-1.4-2-1.4-3.3s.5-2.5 1.4-3.4c.9-.9 2.1-1.3 3.5-1.3s2.6.5 3.5 1.6l-1 1.1c-.4-.4-.8-.7-1.2-.9s-.8-.2-1.4-.2c-.9 0-1.7.3-2.3.9s-.9 1.3-.9 2.3c0 .9.3 1.7.9 2.3.6.4 1.4.7 2.2.7zM185.7 381.1c-.4 0-.8.1-1.1.3-.3.2-.4.5-.4.8s.1.6.4.8c.3.2.9.4 1.8.6.9.2 1.6.5 2.1.9s.7 1 .7 1.8-.3 1.4-.9 1.9c-.6.5-1.4.7-2.3.7-1.4 0-2.7-.5-3.8-1.5l1-1.2c.9.8 1.9 1.2 2.9 1.2.5 0 .9-.1 1.2-.3.3-.2.4-.5.4-.8 0-.4-.1-.6-.4-.8s-.7-.4-1.4-.5c-.7-.2-1.2-.3-1.5-.4-.3-.1-.7-.3-.9-.5-.5-.4-.8-1-.8-1.9 0-.8.3-1.5.9-1.9.6-.5 1.4-.7 2.3-.7.6 0 1.2.1 1.7.3.6.2 1.1.5 1.5.8l-.8 1.2c-.3-.2-.6-.4-1.1-.6-.6-.1-1.1-.2-1.5-.2zM191.1 380h1.5v9.1h-1.5V380zM199.3 387.6c.5 0 1-.1 1.4-.3.4-.2.8-.5 1.2-.8l1 1c-1 1.1-2.1 1.6-3.5 1.6s-2.5-.4-3.4-1.3c-.9-.9-1.4-2-1.4-3.3s.5-2.5 1.4-3.4c.9-.9 2.1-1.3 3.5-1.3s2.6.5 3.5 1.6l-1 1.1c-.4-.4-.8-.7-1.2-.9s-.8-.2-1.4-.2c-.9 0-1.7.3-2.3.9s-.9 1.3-.9 2.3c0 .9.3 1.7.9 2.3.6.4 1.3.7 2.2.7zM212.1 387.8c-.9.9-2 1.3-3.4 1.3s-2.5-.4-3.4-1.3-1.4-2-1.4-3.3.5-2.4 1.4-3.3 2-1.3 3.4-1.3 2.5.4 3.4 1.3 1.4 2 1.4 3.3c-.1 1.2-.5 2.4-1.4 3.3zm-1.2-5.7c-.6-.6-1.4-1-2.3-1s-1.7.3-2.3 1c-.6.6-.9 1.4-.9 2.3s.3 1.7.9 2.3c.6.6 1.4 1 2.3 1s1.7-.3 2.3-1c.6-.6.9-1.4.9-2.3s-.2-1.7-.9-2.3zM463.9 198.4v-9.1h1.5v7.6h4.1v1.5h-5.6zM472.5 196.4l-.9 2.1H470l4-9.1h1.6l4 9.1H478l-.9-2.1h-4.6zm3.9-1.4l-1.6-3.7-1.6 3.7h3.2zM480.8 189.4h1.5v4.4l4.1-4.4h1.9l-3.6 4 3.7 5.1h-1.8l-3-4-1.3 1.4v2.5h-1.5v-9zM496.3 189.4v1.4h-4.8v2.4h4.3v1.4h-4.3v2.4h5v1.4H490v-9.1h6.3v.1zM463.2 206.3v7.7h-1.5v-7.7H459v-1.4h7v1.4h-2.8zM468.2 211.9l-.9 2.1h-1.6l4-9.1h1.6l4 9.1h-1.6l-.9-2.1h-4.6zm3.9-1.4l-1.6-3.7-1.6 3.7h3.2zM476.5 214v-9.1h1.5v3.9h4.5v-3.9h1.5v9.1h-1.5v-3.7H478v3.7h-1.5zM494.2 212.7c-.9.9-2 1.3-3.4 1.3-1.3 0-2.5-.4-3.4-1.3s-1.4-2-1.4-3.3.5-2.4 1.4-3.3 2-1.3 3.4-1.3c1.3 0 2.5.4 3.4 1.3s1.4 2 1.4 3.3-.5 2.4-1.4 3.3zm-1.1-5.6c-.6-.6-1.4-1-2.3-1s-1.7.3-2.3 1c-.6.6-.9 1.4-.9 2.3s.3 1.7.9 2.3c.6.6 1.4 1 2.3 1s1.7-.3 2.3-1c.6-.6.9-1.4.9-2.3s-.3-1.7-.9-2.3zM503.9 204.9v1.4H499v2.4h4.3v1.4H499v2.4h5v1.4h-6.5v-9.1l6.4.1z"/><g id="_x3C_INTERSTATE_MARKER_x3E__2_"><path class="st5" d="M267.2 200.6h-9.4c-.1.5-.2 1.1-.2 1.6s.1 4.8 4.9 6.1c4.8-1.3 4.9-5.6 4.9-6.1.1-.5 0-1-.2-1.6zM267.2 200.4c-.2-.6-.5-1.3-1-1.9-.5.1-1.1.2-1.8.2-.5 0-1.2 0-1.9-.3-.7.2-1.4.3-1.9.3-.7 0-1.3-.1-1.8-.2-.4.6-.8 1.2-1 1.9h9.4z"/></g><path class="st1" d="M263.7 202.2v.6H262v1c.2-.1.4-.1.6-.1.4 0 .7.1 1 .3s.4.5.4.9-.1.7-.4 1c-.3.3-.6.4-1 .4-.5 0-1-.2-1.3-.5l.4-.5.1.1c.1 0 .2.1.3.2.2.1.3.1.5.1s.4-.1.5-.2c.2-.1.2-.3.2-.5s-.1-.4-.2-.5-.4-.2-.6-.2c-.3 0-.5.1-.7.2l-.3-.3v-1.9h2.2v-.1z"/><path class="st5" d="M491.7 239.4s-.5-.7-1.4-.7c-1.4 0-2.3-.3-2.9-1.4-1-1.7.2-2.7.2-3.8 0-.8-.6-1.9-.6-1.9l1.7-1.6c1.2.8 2.1.6 3 0 .9.6 1.8.8 3 0l1.7 1.6s-.6 1.1-.6 1.9c0 1.1 1.3 2.1.2 3.8-.7 1.1-1.6 1.4-2.9 1.4-.9 0-1.4.7-1.4.7z"/><path class="st1" d="M491 232.8v.6h-1.7v1c.2-.1.4-.1.6-.1.4 0 .7.1 1 .3.3.2.4.5.4.9s-.1.7-.4 1-.6.4-1 .4c-.5 0-1-.2-1.3-.5l.4-.5.1.1s.2.1.3.2c.2.1.3.1.5.1s.4-.1.5-.2.2-.3.2-.5-.1-.4-.3-.5c-.2-.1-.4-.2-.6-.2-.3 0-.5.1-.7.2l-.3-.3v-1.9l2.3-.1zM492 236.3c-.3-.4-.4-.9-.4-1.5s.1-1.1.4-1.5.7-.6 1.2-.6 1 .2 1.2.6c.3.4.4.9.4 1.5s-.1 1.1-.4 1.5-.7.6-1.2.6-.9-.2-1.2-.6zm.5-2.6c-.2.3-.2.6-.2 1.1s.1.8.2 1.1c.2.3.4.4.7.4s.6-.1.7-.4c.2-.3.2-.6.2-1.1s-.1-.8-.2-1.1c-.2-.3-.4-.4-.7-.4s-.6.2-.7.4z"/><path class="st5" d="M177.4 326.5s-.5-.7-1.4-.7c-1.4 0-2.3-.3-2.9-1.4-1-1.7.2-2.7.2-3.8 0-.8-.6-1.9-.6-1.9l1.7-1.6c1.2.8 2.1.6 3 0 .9.6 1.8.8 3 0l1.7 1.6s-.6 1.1-.6 1.9c0 1.1 1.3 2.1.2 3.8-.7 1.1-1.6 1.4-2.9 1.4-.9 0-1.4.7-1.4.7z"/><path class="st1" d="M174.1 320h1.5v4h-.6v-3.4h-.8l-.1-.6zM176.4 323.5c-.3-.4-.4-.9-.4-1.5s.1-1.1.4-1.5c.3-.4.7-.6 1.2-.6s1 .2 1.2.6c.3.4.4.9.4 1.5s-.1 1.1-.4 1.5c-.3.4-.7.6-1.2.6s-.9-.2-1.2-.6zm.5-2.6c-.2.3-.2.6-.2 1.1s.1.8.2 1.1c.1.3.4.4.7.4.3 0 .6-.1.7-.4.2-.3.2-.6.2-1.1s-.1-.8-.2-1.1c-.2-.3-.4-.4-.7-.4-.3 0-.5.1-.7.4zM179.3 320h1.5v4h-.6v-3.4h-.8l-.1-.6z"/><g><path class="st5" d="M382 261.8s-.5-.7-1.4-.7c-1.4 0-2.3-.3-2.9-1.4-1-1.7.2-2.7.2-3.8 0-.8-.6-1.9-.6-1.9l1.7-1.6c1.2.8 2.1.6 3 0 .9.6 1.8.8 3 0l1.7 1.6s-.6 1.1-.6 1.9c0 1.1 1.3 2.1.2 3.8-.7 1.1-1.6 1.4-2.9 1.4-.9.1-1.4.7-1.4.7z"/><path class="st1" d="M381.4 255.3v.6h-1.7v1c.2-.1.4-.1.6-.1.4 0 .7.1 1 .3.3.2.4.5.4.9s-.1.7-.4 1-.6.4-1 .4c-.5 0-1-.2-1.3-.5l.4-.5.1.1c.1 0 .2.1.3.2s.3.1.5.1.4-.1.5-.2.2-.3.2-.5-.1-.4-.3-.5c-.2-.1-.4-.2-.6-.2-.3 0-.5.1-.7.2l-.3-.3v-1.9l2.3-.1zM382.3 258.8c-.3-.4-.4-.9-.4-1.5s.1-1.1.4-1.5.7-.6 1.2-.6 1 .2 1.2.6c.3.4.4.9.4 1.5s-.1 1.1-.4 1.5-.7.6-1.2.6-.9-.2-1.2-.6zm.5-2.6c-.2.3-.2.6-.2 1.1 0 .4.1.8.2 1.1.2.3.4.4.7.4s.6-.1.7-.4c.2-.3.2-.6.2-1.1s-.1-.8-.2-1.1c-.2-.3-.4-.4-.7-.4s-.5.2-.7.4z"/></g><path class="st0" d="M292.8 355.5l12-9.6 3-6.8-1.8 6.8-1.4 3.4-11.8 7.9zM307.8 326.5l-1.6-4.7-4-4.7 2.8 1 2.8-3.1 3.2-2.7v-5l-.9 11zM389.5 222.3s-2.3.8-2.7 1.9c-.4 1.1 0 2.5 0 2.5h-1.6v3.3l-.6.9-4 6-4.1 5.9v1.9l3.6 2.9h2.9s2.4-1.9 2.2-2.6-.7-2.2-.7-2.2l2.6-2.4v-2.3l-4.1 3.3-1 1.4-1.2-1.4 1.2-2 1-2.5 1.9-2.2 1.9-4.7 1.3-3.5 1.4-4.2z"/><g><path class="st5" d="M207.5 304.4h1.5v9.1h-1.7l-5.1-6.6v6.6h-1.5v-9.1h1.5l5.3 6.8v-6.8zM212.8 311.4l-.9 2.1h-1.6l4-9.1h1.6l4 9.1h-1.6l-.9-2.1h-4.6zm3.9-1.4l-1.6-3.7-1.6 3.7h3.2zM227.2 305.2c.6.5.9 1.3.9 2.4s-.3 1.9-1 2.4c-.6.5-1.6.8-3 .8h-1.6v2.7H221v-9.1h3.1c1.5 0 2.5.3 3.1.8zm-1 3.7c.3-.3.5-.8.5-1.4s-.2-1.1-.6-1.3c-.4-.3-1-.4-1.8-.4h-1.6v3.6h1.8c.8 0 1.4-.2 1.7-.5zM230.8 311.4l-.9 2.1h-1.6l4-9.1h1.6l4 9.1h-1.6l-.9-2.1h-4.6zm3.9-1.4l-1.6-3.7-1.6 3.7h3.2z"/></g><g><path class="st6" d="M463.1 182.9l13.3-13.3 9.8-9.8 10.6 10.5 12.6 12.6z"/><path class="st7" d="M484.8 169.3l-5.6-2 7-7.5 7.6 7.5-7.3-2.8z"/><path class="st6" d="M456 182.9l13.7-13.6 32.7 13.6z"/><path class="st7" d="M476 169.2l-7.4 7.4"/></g><g><circle class="st6" cx="208" cy="280.8" r="3.3"/><circle class="st6" cx="215.4" cy="280.8" r="3.3"/><circle class="st6" cx="211.8" cy="286.8" r="3.3"/><circle class="st6" cx="219.1" cy="286.8" r="3.3"/><circle class="st6" cx="219.1" cy="298.8" r="3.3"/><circle class="st6" cx="226.9" cy="286.8" r="3.3"/><circle class="st6" cx="211.8" cy="274.6" r="3.3"/><circle class="st6" cx="219.1" cy="274.6" r="3.3"/><circle class="st6" cx="226.9" cy="274.6" r="3.3"/><circle class="st6" cx="222.8" cy="280.8" r="3.3"/><circle class="st6" cx="215.4" cy="292.9" r="3.3"/><circle class="st6" cx="222.8" cy="292.9" r="3.3"/><circle class="st6" cx="230.1" cy="280.8" r="3.3"/><path class="st8" d="M219.1 264v5"/><path class="st9" d="M219.1 270.7c-1 0-1.8-.8-1.8-1.8v-5c0-1 .8-1.8 1.8-1.8s1.8.8 1.8 1.8v5c0 1.1-.8 1.8-1.8 1.8zM222.2 269.8s-2.8-12 11.9-9.7c-.1 8.5-6 11.3-11.9 10.3M216.5 270.2s1.4-6-5.9-4.9c.1 4.3 3 5.6 5.9 5.2"/><path class="st1" d="M227.703 264.89l.523.604-7.116 6.142-.523-.605z"/><g><path class="st1" d="M212.377 266.198l5.45 4.856-.532.597-5.45-4.855z"/></g></g><path class="st6" d="M377.4 192.9H276.9v-38.8h100.5z"/><path class="st6" d="M371 225.4l-20.8-32.9 6.7-10.7 7.6 10.7z"/><g><defs><path id="SVGID_1_" d="M212 360.3s-12.9.7-16.5-18.7c-3.2 19.7-43.8 19.5-47.8-.7-4.6 19.8-17.6 18.7-17.6 18.7l.6 9.2 82.3 1.5-1-10z"/></defs><clipPath id="SVGID_2_"><use xlink:href="#SVGID_1_" overflow="visible"/></clipPath><path class="st10" d="M131.4 359.6h77.5"/><defs><path id="SVGID_3_" d="M212 360.3s-12.9.7-16.5-18.7c-3.2 19.7-43.8 19.5-47.8-.7-4.6 19.8-17.6 18.7-17.6 18.7l.6 9.2 82.3 1.5-1-10z"/></defs><clipPath id="SVGID_4_"><use xlink:href="#SVGID_3_" overflow="visible"/></clipPath><path class="st11" d="M134.1 342.9v16.7"/><defs><path id="SVGID_5_" d="M212 360.3s-12.9.7-16.5-18.7c-3.2 19.7-43.8 19.5-47.8-.7-4.6 19.8-17.6 18.7-17.6 18.7l.6 9.2 82.3 1.5-1-10z"/></defs><clipPath id="SVGID_6_"><use xlink:href="#SVGID_5_" overflow="visible"/></clipPath><path class="st12" d="M136.4 342.9v16.7"/><defs><path id="SVGID_7_" d="M212 360.3s-12.9.7-16.5-18.7c-3.2 19.7-43.8 19.5-47.8-.7-4.6 19.8-17.6 18.7-17.6 18.7l.6 9.2 82.3 1.5-1-10z"/></defs><clipPath id="SVGID_8_"><use xlink:href="#SVGID_7_" overflow="visible"/></clipPath><path class="st13" d="M138.6 342.9v16.7"/><defs><path id="SVGID_9_" d="M212 360.3s-12.9.7-16.5-18.7c-3.2 19.7-43.8 19.5-47.8-.7-4.6 19.8-17.6 18.7-17.6 18.7l.6 9.2 82.3 1.5-1-10z"/></defs><clipPath id="SVGID_10_"><use xlink:href="#SVGID_9_" overflow="visible"/></clipPath><path class="st14" d="M140.9 342.9v16.7"/><defs><path id="SVGID_11_" d="M212 360.3s-12.9.7-16.5-18.7c-3.2 19.7-43.8 19.5-47.8-.7-4.6 19.8-17.6 18.7-17.6 18.7l.6 9.2 82.3 1.5-1-10z"/></defs><clipPath id="SVGID_12_"><use xlink:href="#SVGID_11_" overflow="visible"/></clipPath><path class="st15" d="M143.2 342.9v16.7"/><defs><path id="SVGID_13_" d="M212 360.3s-12.9.7-16.5-18.7c-3.2 19.7-43.8 19.5-47.8-.7-4.6 19.8-17.6 18.7-17.6 18.7l.6 9.2 82.3 1.5-1-10z"/></defs><clipPath id="SVGID_14_"><use xlink:href="#SVGID_13_" overflow="visible"/></clipPath><path class="st16" d="M145.5 342.9v16.7"/><defs><path id="SVGID_15_" d="M212 360.3s-12.9.7-16.5-18.7c-3.2 19.7-43.8 19.5-47.8-.7-4.6 19.8-17.6 18.7-17.6 18.7l.6 9.2 82.3 1.5-1-10z"/></defs><clipPath id="SVGID_16_"><use xlink:href="#SVGID_15_" overflow="visible"/></clipPath><path class="st17" d="M147.8 342.9v25.9"/><defs><path id="SVGID_17_" d="M212 360.3s-12.9.7-16.5-18.7c-3.2 19.7-43.8 19.5-47.8-.7-4.6 19.8-17.6 18.7-17.6 18.7l.6 9.2 82.3 1.5-1-10z"/></defs><clipPath id="SVGID_18_"><use xlink:href="#SVGID_17_" overflow="visible"/></clipPath><path class="st18" d="M150 342.9v16.7"/><defs><path id="SVGID_19_" d="M212 360.3s-12.9.7-16.5-18.7c-3.2 19.7-43.8 19.5-47.8-.7-4.6 19.8-17.6 18.7-17.6 18.7l.6 9.2 82.3 1.5-1-10z"/></defs><clipPath id="SVGID_20_"><use xlink:href="#SVGID_19_" overflow="visible"/></clipPath><path class="st19" d="M152.3 342.9v16.7"/><defs><path id="SVGID_21_" d="M212 360.3s-12.9.7-16.5-18.7c-3.2 19.7-43.8 19.5-47.8-.7-4.6 19.8-17.6 18.7-17.6 18.7l.6 9.2 82.3 1.5-1-10z"/></defs><clipPath id="SVGID_22_"><use xlink:href="#SVGID_21_" overflow="visible"/></clipPath><path class="st20" d="M154.6 342.9v16.7"/><defs><path id="SVGID_23_" d="M212 360.3s-12.9.7-16.5-18.7c-3.2 19.7-43.8 19.5-47.8-.7-4.6 19.8-17.6 18.7-17.6 18.7l.6 9.2 82.3 1.5-1-10z"/></defs><clipPath id="SVGID_24_"><use xlink:href="#SVGID_23_" overflow="visible"/></clipPath><path class="st21" d="M156.9 342.9v16.7"/><g><defs><path id="SVGID_25_" d="M212 360.3s-12.9.7-16.5-18.7c-3.2 19.7-43.8 19.5-47.8-.7-4.6 19.8-17.6 18.7-17.6 18.7l.6 9.2 82.3 1.5-1-10z"/></defs><clipPath id="SVGID_26_"><use xlink:href="#SVGID_25_" overflow="visible"/></clipPath><path class="st22" d="M159.1 342.9v16.7"/></g><g><defs><path id="SVGID_27_" d="M212 360.3s-12.9.7-16.5-18.7c-3.2 19.7-43.8 19.5-47.8-.7-4.6 19.8-17.6 18.7-17.6 18.7l.6 9.2 82.3 1.5-1-10z"/></defs><clipPath id="SVGID_28_"><use xlink:href="#SVGID_27_" overflow="visible"/></clipPath><path class="st23" d="M161.4 342.9v16.7"/></g><g><defs><path id="SVGID_29_" d="M212 360.3s-12.9.7-16.5-18.7c-3.2 19.7-43.8 19.5-47.8-.7-4.6 19.8-17.6 18.7-17.6 18.7l.6 9.2 82.3 1.5-1-10z"/></defs><clipPath id="SVGID_30_"><use xlink:href="#SVGID_29_" overflow="visible"/></clipPath><path class="st24" d="M163.7 342.9v16.7"/></g><g><defs><path id="SVGID_31_" d="M212 360.3s-12.9.7-16.5-18.7c-3.2 19.7-43.8 19.5-47.8-.7-4.6 19.8-17.6 18.7-17.6 18.7l.6 9.2 82.3 1.5-1-10z"/></defs><clipPath id="SVGID_32_"><use xlink:href="#SVGID_31_" overflow="visible"/></clipPath><path class="st25" d="M166 342.9v16.7"/></g><g><defs><path id="SVGID_33_" d="M212 360.3s-12.9.7-16.5-18.7c-3.2 19.7-43.8 19.5-47.8-.7-4.6 19.8-17.6 18.7-17.6 18.7l.6 9.2 82.3 1.5-1-10z"/></defs><clipPath id="SVGID_34_"><use xlink:href="#SVGID_33_" overflow="visible"/></clipPath><path class="st26" d="M168.2 342.9v16.7"/></g><g><defs><path id="SVGID_35_" d="M212 360.3s-12.9.7-16.5-18.7c-3.2 19.7-43.8 19.5-47.8-.7-4.6 19.8-17.6 18.7-17.6 18.7l.6 9.2 82.3 1.5-1-10z"/></defs><clipPath id="SVGID_36_"><use xlink:href="#SVGID_35_" overflow="visible"/></clipPath><path class="st27" d="M170.5 342.9v16.7"/></g><g><defs><path id="SVGID_37_" d="M212 360.3s-12.9.7-16.5-18.7c-3.2 19.7-43.8 19.5-47.8-.7-4.6 19.8-17.6 18.7-17.6 18.7l.6 9.2 82.3 1.5-1-10z"/></defs><clipPath id="SVGID_38_"><use xlink:href="#SVGID_37_" overflow="visible"/></clipPath><path class="st28" d="M172.8 342.9v16.7"/></g><g><defs><path id="SVGID_39_" d="M212 360.3s-12.9.7-16.5-18.7c-3.2 19.7-43.8 19.5-47.8-.7-4.6 19.8-17.6 18.7-17.6 18.7l.6 9.2 82.3 1.5-1-10z"/></defs><clipPath id="SVGID_40_"><use xlink:href="#SVGID_39_" overflow="visible"/></clipPath><path class="st29" d="M175.1 342.9v16.7"/></g><g><defs><path id="SVGID_41_" d="M212 360.3s-12.9.7-16.5-18.7c-3.2 19.7-43.8 19.5-47.8-.7-4.6 19.8-17.6 18.7-17.6 18.7l.6 9.2 82.3 1.5-1-10z"/></defs><clipPath id="SVGID_42_"><use xlink:href="#SVGID_41_" overflow="visible"/></clipPath><path class="st30" d="M177.4 342.9v16.7"/></g><g><defs><path id="SVGID_43_" d="M212 360.3s-12.9.7-16.5-18.7c-3.2 19.7-43.8 19.5-47.8-.7-4.6 19.8-17.6 18.7-17.6 18.7l.6 9.2 82.3 1.5-1-10z"/></defs><clipPath id="SVGID_44_"><use xlink:href="#SVGID_43_" overflow="visible"/></clipPath><path class="st31" d="M179.6 342.9v16.7"/></g><g><defs><path id="SVGID_45_" d="M212 360.3s-12.9.7-16.5-18.7c-3.2 19.7-43.8 19.5-47.8-.7-4.6 19.8-17.6 18.7-17.6 18.7l.6 9.2 82.3 1.5-1-10z"/></defs><clipPath id="SVGID_46_"><use xlink:href="#SVGID_45_" overflow="visible"/></clipPath><path class="st32" d="M181.9 342.9v16.7"/></g><g><defs><path id="SVGID_47_" d="M212 360.3s-12.9.7-16.5-18.7c-3.2 19.7-43.8 19.5-47.8-.7-4.6 19.8-17.6 18.7-17.6 18.7l.6 9.2 82.3 1.5-1-10z"/></defs><clipPath id="SVGID_48_"><use xlink:href="#SVGID_47_" overflow="visible"/></clipPath><path class="st33" d="M184.2 342.9v16.7"/></g><g><defs><path id="SVGID_49_" d="M212 360.3s-12.9.7-16.5-18.7c-3.2 19.7-43.8 19.5-47.8-.7-4.6 19.8-17.6 18.7-17.6 18.7l.6 9.2 82.3 1.5-1-10z"/></defs><clipPath id="SVGID_50_"><use xlink:href="#SVGID_49_" overflow="visible"/></clipPath><path class="st34" d="M186.5 342.9v16.7"/></g><g><defs><path id="SVGID_51_" d="M212 360.3s-12.9.7-16.5-18.7c-3.2 19.7-43.8 19.5-47.8-.7-4.6 19.8-17.6 18.7-17.6 18.7l.6 9.2 82.3 1.5-1-10z"/></defs><clipPath id="SVGID_52_"><use xlink:href="#SVGID_51_" overflow="visible"/></clipPath><path class="st35" d="M188.7 342.9v16.7"/></g><g><defs><path id="SVGID_53_" d="M212 360.3s-12.9.7-16.5-18.7c-3.2 19.7-43.8 19.5-47.8-.7-4.6 19.8-17.6 18.7-17.6 18.7l.6 9.2 82.3 1.5-1-10z"/></defs><clipPath id="SVGID_54_"><use xlink:href="#SVGID_53_" overflow="visible"/></clipPath><path class="st36" d="M191 342.9v16.7"/></g><g><defs><path id="SVGID_55_" d="M212 360.3s-12.9.7-16.5-18.7c-3.2 19.7-43.8 19.5-47.8-.7-4.6 19.8-17.6 18.7-17.6 18.7l.6 9.2 82.3 1.5-1-10z"/></defs><clipPath id="SVGID_56_"><use xlink:href="#SVGID_55_" overflow="visible"/></clipPath><path class="st37" d="M193.3 342.9v16.7"/></g><g><defs><path id="SVGID_57_" d="M212 360.3s-12.9.7-16.5-18.7c-3.2 19.7-43.8 19.5-47.8-.7-4.6 19.8-17.6 18.7-17.6 18.7l.6 9.2 82.3 1.5-1-10z"/></defs><clipPath id="SVGID_58_"><use xlink:href="#SVGID_57_" overflow="visible"/></clipPath><path class="st38" d="M195.6 342.9v25.9"/></g><g><defs><path id="SVGID_59_" d="M212 360.3s-12.9.7-16.5-18.7c-3.2 19.7-43.8 19.5-47.8-.7-4.6 19.8-17.6 18.7-17.6 18.7l.6 9.2 82.3 1.5-1-10z"/></defs><clipPath id="SVGID_60_"><use xlink:href="#SVGID_59_" overflow="visible"/></clipPath><path class="st39" d="M197.8 342.9v16.7"/></g><g><defs><path id="SVGID_61_" d="M212 360.3s-12.9.7-16.5-18.7c-3.2 19.7-43.8 19.5-47.8-.7-4.6 19.8-17.6 18.7-17.6 18.7l.6 9.2 82.3 1.5-1-10z"/></defs><clipPath id="SVGID_62_"><use xlink:href="#SVGID_61_" overflow="visible"/></clipPath><path class="st40" d="M200.1 342.9v16.7"/></g><g><defs><path id="SVGID_63_" d="M212 360.3s-12.9.7-16.5-18.7c-3.2 19.7-43.8 19.5-47.8-.7-4.6 19.8-17.6 18.7-17.6 18.7l.6 9.2 82.3 1.5-1-10z"/></defs><clipPath id="SVGID_64_"><use xlink:href="#SVGID_63_" overflow="visible"/></clipPath><path class="st41" d="M202.4 342.9v16.7"/></g><g><defs><path id="SVGID_65_" d="M212 360.3s-12.9.7-16.5-18.7c-3.2 19.7-43.8 19.5-47.8-.7-4.6 19.8-17.6 18.7-17.6 18.7l.6 9.2 82.3 1.5-1-10z"/></defs><clipPath id="SVGID_66_"><use xlink:href="#SVGID_65_" overflow="visible"/></clipPath><path class="st42" d="M204.7 342.9v16.7"/></g><g><defs><path id="SVGID_67_" d="M212 360.3s-12.9.7-16.5-18.7c-3.2 19.7-43.8 19.5-47.8-.7-4.6 19.8-17.6 18.7-17.6 18.7l.6 9.2 82.3 1.5-1-10z"/></defs><clipPath id="SVGID_68_"><use xlink:href="#SVGID_67_" overflow="visible"/></clipPath><path class="st43" d="M206.9 342.9v16.7"/></g><g><defs><path id="SVGID_69_" d="M212 360.3s-12.9.7-16.5-18.7c-3.2 19.7-43.8 19.5-47.8-.7-4.6 19.8-17.6 18.7-17.6 18.7l.6 9.2 82.3 1.5-1-10z"/></defs><clipPath id="SVGID_70_"><use xlink:href="#SVGID_69_" overflow="visible"/></clipPath><path class="st44" d="M209.2 342.9v16.7"/></g><path class="st45" d="M131.4 359.6c3.4-.3 12.7-2.6 16.3-18.6 4 20.2 44.6 20.3 47.8.7 2.4 13.3 9.3 16.8 13.3 17.7"/></g><path class="st1" d="M356.4 443.3h9.9v2.7h-9.9z"/><g><g id="_x3C_INTERSTATE_MARKER_x3E__1_"><path class="st5" d="M366.5 444.2h-9.4c-.1.5-.2 1.1-.2 1.6s.1 4.8 4.9 6.1c4.8-1.3 4.9-5.7 4.9-6.1 0-.6-.1-1.1-.2-1.6zM366.4 443.9c-.2-.6-.5-1.3-1-1.9-.5.1-1.1.2-1.8.2-.5 0-1.2 0-1.9-.3-.7.2-1.4.3-1.9.3-.7 0-1.3-.1-1.8-.2-.4.6-.8 1.2-1 1.9h9.4z"/></g><path class="st1" d="M362.9 445.7v.6h-1.7v1c.2-.1.4-.1.6-.1.4 0 .7.1 1 .3s.4.5.4.9-.1.7-.4 1-.6.4-1 .4c-.5 0-1-.2-1.3-.5l.4-.5.1.1s.2.1.3.2c.2.1.3.1.5.1s.4-.1.5-.2.2-.3.2-.5-.1-.4-.3-.5c-.2-.1-.4-.2-.6-.2-.3 0-.5.1-.7.2l-.3-.3v-2h2.3z"/></g><g><path class="st9" d="M198.3 316.6h1.8v4.9h-.8v-4.2h-1v-.7zM203.4 321.5v-4.9h.8v2.1h2.4v-2.1h.8v4.9h-.8v-2h-2.4v2h-.8zM212.7 318.2c0 .8-.4 1.3-1.1 1.5l1.3 1.8h-1.1l-1.2-1.6h-1.1v1.6h-.8v-4.9h1.8c.7 0 1.3.1 1.6.4.5.2.6.6.6 1.2zm-1.1.7c.2-.1.3-.4.3-.7 0-.3-.1-.5-.3-.7-.2-.1-.5-.2-.9-.2h-1.1v1.8h1c.5 0 .9-.1 1-.2zM217.8 318.5c.1-.2.2-.4.2-.6s-.1-.4-.2-.5-.3-.2-.6-.2c-.4 0-.7.2-1 .6l-.7-.4c.2-.3.5-.6.7-.7s.6-.2 1-.2.8.1 1.1.4.5.6.5 1.1c0 .3-.1.5-.2.7-.1.2-.4.5-.7.9l-1.1 1.2h2.2v.8h-3.3v-.7l1.5-1.5c.2-.4.4-.7.6-.9zM219.8 317.3v-.7h2.9v.6l-1.2 1.3c.4 0 .8.2 1.1.4.3.3.4.6.4 1 0 .5-.2.9-.5 1.2-.3.3-.8.4-1.3.4s-1.1-.2-1.6-.5l.4-.7c.4.3.8.4 1.3.4.3 0 .5-.1.7-.2s.3-.3.3-.6c0-.2-.1-.4-.3-.6-.2-.1-.5-.2-.9-.2-.2 0-.4 0-.5.1v-.6l1.1-1.3h-1.9zM226.7 321.5h-.8v-4.9h1.3l1.5 3.1 1.5-3.1h1.3v4.9h-.8v-3.8l-1.7 3.4h-.5l-1.7-3.4-.1 3.8zM232.8 316.6h.8v4.9h-.8v-4.9zM238.7 316.6h.8v4.9h-.9l-2.8-3.6v3.6h-.8v-4.9h.8l2.8 3.7.1-3.7z"/></g><g><path class="st9" d="M462.5 218.1h1.8v4.9h-.8v-4.2h-1v-.7zM467.5 223v-4.9h.8v2.1h2.4v-2.1h.8v4.9h-.8v-2h-2.4v2h-.8zM476.9 219.7c0 .8-.4 1.3-1.1 1.5l1.3 1.8h-1l-1.2-1.6h-1.1v1.6h-.8v-4.9h1.8c.7 0 1.3.1 1.6.4.3.2.5.6.5 1.2zm-1.1.7c.2-.1.3-.4.3-.7s-.1-.5-.3-.7c-.2-.1-.5-.2-.9-.2h-1v1.8h1c.4 0 .7-.1.9-.2zM482.7 218.1v.7h-2.1v1.2c.2-.1.4-.2.7-.2.5 0 .9.1 1.2.4.3.3.5.6.5 1.1s-.2.9-.5 1.2c-.3.3-.8.5-1.3.5-.7 0-1.2-.2-1.6-.7l.4-.6.1.1c.1.1.2.1.4.2s.4.1.6.1.4-.1.6-.2.3-.3.3-.6-.1-.5-.3-.6c-.2-.1-.5-.2-.8-.2s-.6.1-.9.2l-.4-.4v-2.4l3.1.2zM484.3 222.4c-.3-.5-.5-1.1-.5-1.8 0-.8.2-1.4.5-1.8.3-.5.8-.7 1.5-.7s1.2.2 1.5.7.5 1.1.5 1.8c0 .8-.2 1.4-.5 1.8-.3.5-.8.7-1.5.7s-1.2-.3-1.5-.7zm.6-3.2c-.2.3-.3.8-.3 1.3s.1 1 .3 1.3c.2.3.5.5.9.5s.7-.2.9-.5c.2-.3.3-.8.3-1.3 0-.6-.1-1-.3-1.3-.2-.3-.5-.5-.9-.5s-.7.2-.9.5zM491.6 223h-.8v-4.9h1.3l1.5 3.1 1.5-3.1h1.3v4.9h-.8v-3.8l-1.7 3.4h-.5l-1.7-3.4-.1 3.8zM497.6 218.1h.8v4.9h-.8v-4.9zM503.5 218.1h.8v4.9h-.9l-2.8-3.6v3.6h-.8v-4.9h.8l2.8 3.7v-3.7h.1z"/></g><g><path class="st9" d="M153.6 391.9h1.8v4.9h-.8v-4.2h-1v-.7zM158.6 396.8v-4.9h.8v2.1h2.4v-2.1h.8v4.9h-.8v-2h-2.4v2h-.8zM168 393.5c0 .8-.4 1.3-1.1 1.5l1.3 1.8h-1.1l-1.2-1.6h-1.1v1.6h-.8v-4.9h1.8c.7 0 1.3.1 1.6.4.4.2.6.6.6 1.2zm-1.1.7c.2-.1.3-.4.3-.7s-.1-.5-.3-.7c-.2-.1-.5-.2-.9-.2h-1.1v1.8h1c.5 0 .8-.1 1-.2zM172.8 394.8v-.9h.8v.9h.6v.7h-.6v1.2h-.8v-1.2h-2.1v-.7l1.8-2.9h.9l-1.8 2.9h1.2zM177.8 391.9v.7h-2.1v1.2c.2-.1.4-.2.7-.2.5 0 .9.1 1.2.4.3.3.5.6.5 1.1s-.2.9-.5 1.2c-.3.3-.8.5-1.3.5-.7 0-1.2-.2-1.6-.7l.4-.6.1.1c.1.1.2.1.4.2s.4.1.6.1.4-.1.6-.2c.2-.1.3-.3.3-.6s-.1-.5-.3-.6c-.2-.1-.5-.2-.8-.2-.3 0-.6.1-.9.2l-.4-.4v-2.4l3.1.2zM181.9 396.8h-.9v-4.9h1.3l1.5 3.1 1.5-3.1h1.3v4.9h-.8V393l-1.7 3.4h-.5l-1.7-3.4v3.8zM187.9 391.9h.8v4.9h-.8v-4.9zM193.8 391.9h.8v4.9h-.9l-2.8-3.6v3.6h-.8v-4.9h.8l2.8 3.7.1-3.7z"/></g><path class="st1" d="M262.6 254H354v12.1h-91.4z"/><g><path class="st5" d="M255 257.3c-.4 0-.8.1-1.1.3-.3.2-.4.5-.4.8s.1.6.4.8c.3.2.9.4 1.8.6s1.6.5 2.1.9.7 1 .7 1.8-.3 1.4-.9 1.9-1.4.7-2.3.7c-1.4 0-2.7-.5-3.8-1.5l1-1.2c.9.8 1.9 1.2 2.9 1.2.5 0 .9-.1 1.2-.3.3-.2.4-.5.4-.8s-.1-.6-.4-.8c-.3-.2-.7-.4-1.4-.5-.7-.2-1.2-.3-1.5-.4s-.7-.3-.9-.5c-.5-.4-.8-1-.8-1.9 0-.8.3-1.5.9-1.9.6-.5 1.4-.7 2.3-.7.6 0 1.2.1 1.7.3.6.2 1.1.5 1.5.8l-.8 1.2c-.3-.2-.6-.4-1.1-.6-.7-.1-1.1-.2-1.5-.2zM261.6 263.1l-.9 2.1H259l4-9.1h1.6l4 9.1H267l-.9-2.1h-4.5zm3.9-1.4l-1.6-3.7-1.6 3.7h3.2zM274 263.8c.5 0 1-.1 1.4-.3s.8-.5 1.2-.8l1 1c-1 1.1-2.1 1.6-3.5 1.6s-2.5-.4-3.4-1.3c-.9-.9-1.4-2-1.4-3.3s.5-2.5 1.4-3.4c.9-.9 2.1-1.3 3.5-1.3s2.6.5 3.5 1.6l-1 1.1c-.4-.4-.8-.7-1.2-.9s-.8-.2-1.4-.2c-.9 0-1.7.3-2.3.9-.6.6-.9 1.3-.9 2.3 0 .9.3 1.7.9 2.3.6.4 1.4.7 2.2.7zM286.7 259c0 1.5-.7 2.4-2 2.8l2.4 3.3h-1.9l-2.2-3h-2v3h-1.5V256h3.4c1.4 0 2.4.2 3 .7.5.6.8 1.3.8 2.3zm-2.1 1.3c.3-.3.5-.7.5-1.3 0-.6-.2-1-.5-1.2s-.9-.3-1.7-.3H281v3.2h1.9c.8 0 1.4-.1 1.7-.4zM290.1 263.1l-.9 2.1h-1.6l4-9.1h1.6l4 9.1h-1.6l-.9-2.1h-4.6zm3.9-1.4l-1.6-3.7-1.6 3.7h3.2zM300 265.2h-1.5v-9.1h2.4l2.7 5.7 2.7-5.7h2.4v9.1h-1.5v-7.1l-3.2 6.3h-.9l-3.1-6.3v7.1zM317.6 256.1v1.4h-4.8v2.4h4.3v1.4h-4.3v2.4h5v1.4h-6.5V256l6.3.1zM326.5 256.1h1.5v9.1h-1.7l-5.1-6.6v6.6h-1.5v-9.1h1.5l5.3 6.8v-6.8zM333.9 257.5v7.7h-1.5v-7.7h-2.7v-1.4h7v1.4h-2.8zM345.7 263.9c-.9.9-2 1.3-3.4 1.3s-2.5-.4-3.4-1.3-1.4-2-1.4-3.3.5-2.4 1.4-3.3 2-1.3 3.4-1.3 2.5.4 3.4 1.3 1.4 2 1.4 3.3c-.1 1.3-.5 2.4-1.4 3.3zm-1.2-5.7c-.6-.6-1.4-1-2.3-1s-1.7.3-2.3 1c-.6.6-.9 1.4-.9 2.3s.3 1.7.9 2.3c.6.6 1.4 1 2.3 1s1.7-.3 2.3-1c.6-.6.9-1.4.9-2.3.1-.9-.3-1.6-.9-2.3z"/></g><path class="st1" d="M262.6 228.3h63.6v14.1h-63.6z"/><g><path class="st6" d="M302.5 201.4l1.7 11.8-1.7 3.9-2.1-3.9z"/><ellipse class="st9" cx="302.2" cy="219.3" rx="7.9" ry="8.4"/><path class="st6" d="M292.5 217.8h19.3v9.3h-19.3z"/><path class="st1" d="M287.7 230.3h28.1v11.6h-28.1z"/><path class="st6" d="M262.4 229.6h79.5v14.3h-79.5zM302 222l-21.8 6.8h43.4z"/><path class="st1" d="M327.1 229.4h-50.4l25.2-7.9 25.2 7.9zm-43.4-1.1h36.4l-18.2-5.7-18.2 5.7z"/><path class="st8" d="M287.7 229.3V247"/><path class="st1" d="M287 229.3h1.4v17.8H287z"/><path class="st8" d="M292 229.3V247"/><path class="st1" d="M291.3 229.3h1.4v17.8h-1.4z"/><path class="st8" d="M297 229.3V247"/><path class="st1" d="M296.3 229.3h1.4v17.8h-1.4z"/><path class="st8" d="M307 229.3V247"/><path class="st1" d="M306.3 229.3h1.4v17.8h-1.4z"/><path class="st8" d="M312 229.3V247"/><path class="st1" d="M311.2 229.3h1.4v17.8h-1.4z"/><path class="st8" d="M316.2 229.3V247"/><path class="st1" d="M315.5 229.3h1.4v17.8h-1.4z"/><path class="st8" d="M292.5 217.8h19.3"/><path class="st1" d="M292.5 217.3h19.3v1.1h-19.3z"/><path class="st6" d="M331.1 226.5h10.8v2.4h-10.8zM262.6 226.5h10.8v2.4h-10.8z"/><path class="st9" d="M320.4 231.7h1.6v4.4h-1.6zM324.6 231.7h1.6v4.4h-1.6zM328.9 231.7h1.6v4.4h-1.6zM333.1 231.7h1.6v4.4h-1.6zM337.3 231.7h1.6v4.4h-1.6zM320.4 238h1.6v4.4h-1.6zM324.6 238h1.6v4.4h-1.6zM328.9 238h1.6v4.4h-1.6zM333.1 238h1.6v4.4h-1.6zM337.3 238h1.6v4.4h-1.6zM265.7 231.7h1.6v4.4h-1.6zM269.9 231.7h1.6v4.4h-1.6zM274.1 231.7h1.6v4.4h-1.6zM278.4 231.7h1.6v4.4h-1.6zM282.6 231.7h1.6v4.4h-1.6zM265.7 238h1.6v4.4h-1.6zM269.9 238h1.6v4.4h-1.6zM274.1 238h1.6v4.4h-1.6zM278.4 238h1.6v4.4h-1.6zM282.6 238h1.6v4.4h-1.6z"/><g><path class="st9" d="M299.2 234.3h6v5.6h-6z"/></g><g><path class="st6" d="M287.7 240.2h28.5v6.8h-28.5z"/><path class="st1" d="M316.8 247.6h-29.5v-7.9h29.5v7.9zm-28.5-1.1h27.4v-5.7h-27.4v5.7z"/></g><g><path class="st1" d="M301.8 234.3h.4v5.9h-.4z"/></g><path class="st9" d="M293.9 243.9c0-.7-.6-1.3-1.3-1.3-.7 0-1.2.6-1.3 1.3v2.5h2.5l.1-2.5zM298.7 243.9c0-.7-.6-1.3-1.3-1.3s-1.2.6-1.3 1.3v2.5h2.5l.1-2.5zM303.5 243.9c0-.7-.6-1.3-1.3-1.3-.7 0-1.2.6-1.3 1.3v2.5h2.5l.1-2.5zM308.4 243.9c0-.7-.6-1.3-1.3-1.3-.7 0-1.2.6-1.3 1.3v2.5h2.5l.1-2.5zM313.2 243.9c0-.7-.6-1.3-1.3-1.3s-1.2.6-1.3 1.3v2.5h2.5l.1-2.5z"/></g><path class="st1" d="M426.5 152.6h6.8v7.1h-6.8z"/><g><g id="_x3C_INTERSTATE_MARKER_x3E__3_"><path class="st5" d="M433.8 154.7h-9.4c-.1.5-.2 1.1-.2 1.6s.1 4.8 4.9 6.1c4.8-1.3 4.9-5.6 4.9-6.1.1-.5 0-1-.2-1.6zM433.8 154.5c-.2-.6-.5-1.3-1-1.9-.5.1-1.1.2-1.8.2-.5 0-1.2 0-1.9-.3-.7.2-1.4.3-1.9.3-.7 0-1.3-.1-1.8-.2-.4.6-.8 1.2-1 1.9h9.4z"/></g><path class="st1" d="M426.5 156c.3-.2.6-.3 1-.3s.7.1 1 .3.4.5.4.8-.1.6-.4.8c.4.2.6.6.6 1 0 .3-.1.6-.4.9-.3.2-.6.4-1.1.4-.4 0-.8-.1-1.1-.4-.3-.2-.4-.5-.4-.9s.2-.8.6-1c-.3-.2-.4-.5-.4-.8-.2-.3 0-.6.2-.8zm.4 3.1c.2.1.4.2.6.2s.4-.1.6-.2c.2-.1.3-.3.3-.5s-.1-.4-.3-.5c-.2-.1-.4-.2-.6-.2s-.4.1-.6.2c-.2.1-.3.3-.3.5.1.2.1.4.3.5zm.1-1.8c.1.1.3.2.5.2s.4-.1.5-.2c.1-.1.2-.3.2-.4 0-.2-.1-.3-.2-.4-.1-.1-.3-.2-.5-.2s-.4.1-.5.2c-.1.1-.2.3-.2.4s0 .2.2.4zM429.7 159.3c-.3-.4-.4-.9-.4-1.5s.1-1.1.4-1.5.7-.6 1.2-.6 1 .2 1.2.6c.3.4.4.9.4 1.5s-.1 1.1-.4 1.5-.7.6-1.2.6-.9-.2-1.2-.6zm.5-2.6c-.2.3-.2.6-.2 1.1 0 .4.1.8.2 1.1.2.3.4.4.7.4s.6-.1.7-.4c.2-.3.2-.6.2-1.1s-.1-.8-.2-1.1c-.2-.3-.4-.4-.7-.4s-.5.1-.7.4z"/></g><g><path class="st1" d="M291.3 172.8v6.7c0 1.5-.1 2-.6 2.6-.4.5-1 .8-1.7.8s-1.3-.3-1.7-.8c-.5-.6-.6-1.1-.6-2.6v-6.7h1.5v6.5c0 .9 0 1.4.1 1.6.1.4.4.6.7.6.4 0 .7-.2.8-.7 0-.2.1-.7.1-1.5v-6.5h1.4zM296.2 182.7l-2.2-6.1v6.1h-1.4v-9.9h1.5l2 5.9v-5.9h1.4v9.9h-1.3zM302.8 182.7h-4v-9.9h1.5v8.5h2.5v1.4zM307.7 174.2h-2.6v2.7h1.8v1.4h-1.8v3.1h2.6v1.4h-4v-9.9h4v1.3zM310.6 180.5l-.3 2.2h-1.5l1.6-9.9h1.9l1.7 9.9h-1.5l-.3-2.2h-1.6zm.7-5.3l-.6 4h1.2l-.6-4zM318.1 175.2c-.1-.9-.3-1.2-.9-1.2-.5 0-.8.4-.8 1 0 .7.3 1.1 1.3 2.1 1.5 1.4 1.9 2 1.9 3.2 0 1.5-1 2.5-2.3 2.5-1.5 0-2.4-1.1-2.5-2.7l1.4-.3c0 1 .4 1.5 1.1 1.5.5 0 .9-.4.9-1.1 0-.4-.1-.7-.4-1.1-.2-.3-.3-.4-1.2-1.2-1.2-1.2-1.7-1.9-1.7-3 0-1.5.9-2.5 2.3-2.5 1.3 0 2.1.8 2.2 2.4l-1.3.4zM322.1 178.2v4.5h-1.5v-9.9h1.5v4.1h1.6v-4.1h1.5v9.9h-1.5v-4.5h-1.6zM330.6 174.2H328v2.7h1.8v1.4H328v3.1h2.6v1.4h-4v-9.9h4v1.3zM331.8 172.8h2.1c1.7 0 2.5.9 2.5 2.8v4.3c0 1.9-.8 2.8-2.5 2.8h-2.1v-9.9zm1.9 8.5c.4 0 .7-.1.9-.4.2-.3.3-.6.3-1.3v-3.8c0-.7-.1-1-.3-1.3-.2-.3-.5-.4-.9-.4h-.5v7.1l.5.1z"/></g><g><path class="st1" d="M284.9 164.6h3.5v5.9h1.8v-5.9h3.5v-1.8h-8.8zM301.3 165.8h-4.6v-3h-1.8v7.7h1.8v-2.9h4.6v2.9h1.8v-7.7h-1.8zM311.9 162.8h-7.5v7.7h1.8v-5.9h5.6c.3 0 .5.3.5.8s-.2.8-.5.8h-4.7l3.9 4.3h2.5l-2.3-2.5h.7c.7 0 1.2-.3 1.6-.8.4-.5.6-1.1.6-1.8s-.2-1.3-.6-1.8c-.3-.5-.9-.8-1.6-.8zM315.4 162.8h1.8v7.7h-1.8zM322.9 168.1l-2.7-5.3h-2l3.9 7.7h1.6l3.9-7.7h-2zM336.9 164.6v-1.8h-8.2v7.7h8.2v-1.8h-6.4v-1.1h6v-1.8h-6v-1.2z"/><g><path class="st1" d="M357.9 183.2h4.8l7.5-11.1-7.5-11h-4.8l7.6 11z"/><path class="st1" d="M348.5 183.2h4.7l7.6-11.1-7.6-11h-4.7l7.5 11z"/><path class="st1" d="M339 183.2h4.8l7.5-11.1-7.5-11H339l7.6 11z"/><g><path class="st1" d="M365.5 172.1l-7.6 11.1h4.8l7.5-11.1zM356 172.1l-7.5 11.1h4.7l7.6-11.1zM346.6 172.1l-7.6 11.1h4.8l7.5-11.1z"/></g></g></g></svg>